%TF.GenerationSoftware,KiCad,Pcbnew,4.0.1-stable*%
%TF.CreationDate,2016-06-24T15:57:22+01:00*%
%TF.ProjectId,StrokeRehabilitation,5374726F6B655265686162696C697461,rev?*%
%TF.FileFunction,Copper,L2,Bot,Signal*%
%FSLAX46Y46*%
G04 Gerber Fmt 4.6, Leading zero omitted, Abs format (unit mm)*
G04 Created by KiCad (PCBNEW 4.0.1-stable) date 24/06/2016 15:57:22*
%MOMM*%
G01*
G04 APERTURE LIST*
%ADD10C,0.100000*%
%ADD11C,2.000000*%
%ADD12C,0.300000*%
%ADD13R,2.480000X1.700000*%
%ADD14R,1.600000X1.000000*%
%ADD15C,1.300000*%
%ADD16C,0.685800*%
%ADD17C,0.290000*%
%ADD18C,0.500000*%
%ADD19C,0.250000*%
G04 APERTURE END LIST*
D10*
D11*
X23637600Y5181600D03*
X26637600Y5181600D03*
D12*
X22539600Y9398000D03*
D13*
X22089600Y9398000D03*
D12*
X21639600Y9398000D03*
X20109720Y15402560D03*
D14*
X20509720Y15402560D03*
D12*
X20909720Y15402560D03*
D15*
X2460000Y7650000D03*
X5000000Y7650000D03*
D16*
X25750000Y25799994D03*
X1400000Y19600000D03*
X15500000Y13950000D03*
X27200000Y40750000D03*
X27200000Y32500000D03*
X8500000Y33120000D03*
X7450000Y43250000D03*
X26278600Y22148800D03*
X12894800Y3606800D03*
X19150000Y29550000D03*
X7000000Y19600000D03*
X22700004Y25750000D03*
X26204400Y18289500D03*
X23816800Y15900400D03*
X24121600Y11734800D03*
X28439600Y11582400D03*
X7250000Y8950000D03*
X19950000Y29000000D03*
X20750000Y29550000D03*
X9300000Y8950000D03*
X3300000Y41900000D03*
X7950000Y38050000D03*
D17*
X20909720Y15402560D02*
X20109720Y15402560D01*
D18*
X20919880Y15392400D02*
X20909720Y15402560D01*
D17*
X7000000Y19600000D02*
X11150000Y19600000D01*
X11150000Y19600000D02*
X19150000Y27600000D01*
X19150000Y27600000D02*
X19150000Y29550000D01*
X22700004Y25265067D02*
X22700004Y25750000D01*
X22700004Y21793896D02*
X22700004Y25265067D01*
X26204400Y18289500D02*
X22700004Y21793896D01*
D18*
X23816800Y15900400D02*
X23816800Y12039600D01*
X23816800Y12039600D02*
X24121600Y11734800D01*
X28287200Y11734800D02*
X28439600Y11582400D01*
X24121600Y11734800D02*
X28287200Y11734800D01*
D17*
X19950000Y27700000D02*
X7250000Y15000000D01*
X7250000Y15000000D02*
X7250000Y8950000D01*
X19950000Y29000000D02*
X19950000Y27700000D01*
X9300000Y8950000D02*
X9300000Y16350000D01*
X9300000Y16350000D02*
X20750000Y27800000D01*
X20750000Y27800000D02*
X20750000Y29550000D01*
X20750000Y29065067D02*
X20750000Y29550000D01*
X7950000Y38050000D02*
X4100000Y41900000D01*
X4100000Y41900000D02*
X3300000Y41900000D01*
D19*
G36*
X31545600Y10254400D02*
X29004893Y10254400D01*
X29003142Y10254584D01*
X29001120Y10254400D01*
X28998400Y10254400D01*
X28963237Y10250952D01*
X28915678Y10246624D01*
X28913972Y10246122D01*
X28910995Y10245830D01*
X28834146Y10222628D01*
X28831427Y10221828D01*
X28831333Y10221779D01*
X28826918Y10220446D01*
X28749374Y10179215D01*
X28681315Y10123707D01*
X28625333Y10056037D01*
X28583562Y9978782D01*
X28557591Y9894885D01*
X28548411Y9807542D01*
X28550000Y9790082D01*
X28550000Y3250000D01*
X18000000Y3250000D01*
X17957822Y3245865D01*
X17915678Y3242029D01*
X17914166Y3241584D01*
X17912595Y3241430D01*
X17872035Y3229185D01*
X17831427Y3217233D01*
X17830029Y3216502D01*
X17828518Y3216046D01*
X17791086Y3196143D01*
X17753597Y3176544D01*
X17752369Y3175557D01*
X17750974Y3174815D01*
X17718168Y3148059D01*
X17685151Y3121513D01*
X17684135Y3120302D01*
X17682915Y3119307D01*
X17655939Y3086699D01*
X17628699Y3054235D01*
X17627940Y3052854D01*
X17626933Y3051637D01*
X17606798Y3014398D01*
X17586389Y2977274D01*
X17585911Y2975767D01*
X17585162Y2974382D01*
X17572638Y2933923D01*
X17559834Y2893560D01*
X17559658Y2891995D01*
X17559191Y2890485D01*
X17554759Y2848317D01*
X17550044Y2806283D01*
X17550023Y2803254D01*
X17550011Y2803142D01*
X17550021Y2803030D01*
X17550000Y2800000D01*
X17550000Y450000D01*
X10875000Y450000D01*
X10875000Y1230632D01*
X11273915Y1230632D01*
X11303122Y1071499D01*
X11362681Y921069D01*
X11450324Y785073D01*
X11562714Y668691D01*
X11695568Y576355D01*
X11843827Y511582D01*
X12001844Y476840D01*
X12163599Y473451D01*
X12322932Y501546D01*
X12473774Y560053D01*
X12610378Y646745D01*
X12727543Y758320D01*
X12820804Y890526D01*
X12886611Y1038329D01*
X12922455Y1196100D01*
X12922937Y1230632D01*
X14273915Y1230632D01*
X14303122Y1071499D01*
X14362681Y921069D01*
X14450324Y785073D01*
X14562714Y668691D01*
X14695568Y576355D01*
X14843827Y511582D01*
X15001844Y476840D01*
X15163599Y473451D01*
X15322932Y501546D01*
X15473774Y560053D01*
X15610378Y646745D01*
X15727543Y758320D01*
X15820804Y890526D01*
X15886611Y1038329D01*
X15922455Y1196100D01*
X15925036Y1380895D01*
X15893610Y1539605D01*
X15831956Y1689188D01*
X15742423Y1823947D01*
X15628419Y1938749D01*
X15494289Y2029222D01*
X15345140Y2091918D01*
X15186653Y2124451D01*
X15024866Y2125580D01*
X14865941Y2095264D01*
X14715931Y2034656D01*
X14580550Y1946065D01*
X14464955Y1832866D01*
X14373549Y1699370D01*
X14309813Y1550662D01*
X14276174Y1392407D01*
X14273915Y1230632D01*
X12922937Y1230632D01*
X12925036Y1380895D01*
X12893610Y1539605D01*
X12831956Y1689188D01*
X12742423Y1823947D01*
X12628419Y1938749D01*
X12494289Y2029222D01*
X12345140Y2091918D01*
X12186653Y2124451D01*
X12024866Y2125580D01*
X11865941Y2095264D01*
X11715931Y2034656D01*
X11580550Y1946065D01*
X11464955Y1832866D01*
X11373549Y1699370D01*
X11309813Y1550662D01*
X11276174Y1392407D01*
X11273915Y1230632D01*
X10875000Y1230632D01*
X10875000Y4143860D01*
X10882798Y4223038D01*
X10904105Y4293277D01*
X10938701Y4358001D01*
X10985263Y4414737D01*
X11041999Y4461299D01*
X11106723Y4495895D01*
X11176962Y4517202D01*
X11256140Y4525000D01*
X14950000Y4525000D01*
X14962252Y4525602D01*
X15059797Y4535209D01*
X15083831Y4539989D01*
X15177628Y4568442D01*
X15200267Y4577820D01*
X15286710Y4624025D01*
X15307085Y4637639D01*
X15382853Y4699821D01*
X15400179Y4717147D01*
X15462361Y4792915D01*
X15475975Y4813290D01*
X15522180Y4899733D01*
X15531558Y4922372D01*
X15560011Y5016169D01*
X15564791Y5040203D01*
X15567330Y5065986D01*
X22260793Y5065986D01*
X22309470Y4800765D01*
X22408735Y4550049D01*
X22554808Y4323389D01*
X22742123Y4129418D01*
X22963547Y3975525D01*
X23210646Y3867570D01*
X23474007Y3809666D01*
X23743599Y3804019D01*
X24009154Y3850844D01*
X24260556Y3948356D01*
X24488231Y4092843D01*
X24586922Y4186826D01*
X25819603Y4186826D01*
X25929942Y3994930D01*
X26175048Y3879674D01*
X26437929Y3814451D01*
X26708483Y3801766D01*
X26976314Y3842108D01*
X27231127Y3933926D01*
X27345258Y3994930D01*
X27455597Y4186826D01*
X26637600Y5004823D01*
X25819603Y4186826D01*
X24586922Y4186826D01*
X24683504Y4278799D01*
X24838940Y4499144D01*
X24948617Y4745483D01*
X25008358Y5008433D01*
X25009786Y5110717D01*
X25257766Y5110717D01*
X25298108Y4842886D01*
X25389926Y4588073D01*
X25450930Y4473942D01*
X25642826Y4363603D01*
X26460823Y5181600D01*
X26814377Y5181600D01*
X27632374Y4363603D01*
X27824270Y4473942D01*
X27939526Y4719048D01*
X28004749Y4981929D01*
X28017434Y5252483D01*
X27977092Y5520314D01*
X27885274Y5775127D01*
X27824270Y5889258D01*
X27632374Y5999597D01*
X26814377Y5181600D01*
X26460823Y5181600D01*
X25642826Y5999597D01*
X25450930Y5889258D01*
X25335674Y5644152D01*
X25270451Y5381271D01*
X25257766Y5110717D01*
X25009786Y5110717D01*
X25012659Y5316426D01*
X24960283Y5580942D01*
X24857527Y5830247D01*
X24708304Y6054845D01*
X24587622Y6176374D01*
X25819603Y6176374D01*
X26637600Y5358377D01*
X27455597Y6176374D01*
X27345258Y6368270D01*
X27100152Y6483526D01*
X26837271Y6548749D01*
X26566717Y6561434D01*
X26298886Y6521092D01*
X26044073Y6429274D01*
X25929942Y6368270D01*
X25819603Y6176374D01*
X24587622Y6176374D01*
X24518299Y6246182D01*
X24294748Y6396969D01*
X24046166Y6501463D01*
X23782022Y6555684D01*
X23512377Y6557567D01*
X23247502Y6507039D01*
X22997486Y6406026D01*
X22771851Y6258375D01*
X22579192Y6069709D01*
X22426848Y5847216D01*
X22320621Y5599370D01*
X22264558Y5335611D01*
X22260793Y5065986D01*
X15567330Y5065986D01*
X15574398Y5137748D01*
X15575000Y5150000D01*
X15575000Y12287977D01*
X15579999Y12351499D01*
X15593721Y12408653D01*
X15616218Y12462966D01*
X15646931Y12513084D01*
X15688314Y12561538D01*
X16887598Y13760822D01*
X16949103Y13811298D01*
X17013830Y13845895D01*
X17084069Y13867202D01*
X17163247Y13875000D01*
X20050000Y13875000D01*
X20062252Y13875602D01*
X20159797Y13885209D01*
X20183831Y13889989D01*
X20277628Y13918442D01*
X20300267Y13927820D01*
X20386710Y13974025D01*
X20407085Y13987639D01*
X20482853Y14049821D01*
X20500179Y14067147D01*
X20562361Y14142915D01*
X20575975Y14163290D01*
X20622180Y14249733D01*
X20631558Y14272372D01*
X20660011Y14366169D01*
X20664791Y14390203D01*
X20674398Y14487748D01*
X20675000Y14500000D01*
X20675000Y15840037D01*
X23097956Y15840037D01*
X23123371Y15701562D01*
X23175198Y15570661D01*
X23191800Y15544900D01*
X23191800Y12039600D01*
X23197435Y11982132D01*
X23202466Y11924630D01*
X23203382Y11921477D01*
X23203703Y11918204D01*
X23220385Y11862950D01*
X23236496Y11807495D01*
X23238010Y11804574D01*
X23238959Y11801431D01*
X23266063Y11750456D01*
X23292631Y11699201D01*
X23294679Y11696635D01*
X23296224Y11693730D01*
X23332740Y11648958D01*
X23368731Y11603872D01*
X23373243Y11599296D01*
X23373318Y11599204D01*
X23373403Y11599134D01*
X23374858Y11597658D01*
X23426287Y11546229D01*
X23428171Y11535962D01*
X23479998Y11405061D01*
X23556264Y11286720D01*
X23654063Y11185446D01*
X23769671Y11105097D01*
X23898683Y11048733D01*
X24036186Y11018500D01*
X24176943Y11015552D01*
X24315592Y11040000D01*
X24446851Y11090912D01*
X24476614Y11109800D01*
X27897943Y11109800D01*
X27972063Y11033046D01*
X28087671Y10952697D01*
X28216683Y10896333D01*
X28354186Y10866100D01*
X28494943Y10863152D01*
X28633592Y10887600D01*
X28764851Y10938512D01*
X28883722Y11013950D01*
X28985677Y11111039D01*
X29066831Y11226083D01*
X29124094Y11354699D01*
X29155286Y11491988D01*
X29157531Y11652794D01*
X29130185Y11790900D01*
X29076535Y11921065D01*
X28998625Y12038330D01*
X28899421Y12138228D01*
X28782703Y12216956D01*
X28652916Y12271513D01*
X28571781Y12288168D01*
X28533414Y12309260D01*
X28530276Y12310256D01*
X28527384Y12311806D01*
X28472190Y12328681D01*
X28417145Y12346142D01*
X28413883Y12346508D01*
X28410736Y12347470D01*
X28353263Y12353308D01*
X28295926Y12359739D01*
X28289501Y12359784D01*
X28289382Y12359796D01*
X28289271Y12359786D01*
X28287200Y12359800D01*
X24478870Y12359800D01*
X24464703Y12369356D01*
X24441800Y12378983D01*
X24441800Y15540920D01*
X24444031Y15544083D01*
X24501294Y15672699D01*
X24532486Y15809988D01*
X24534731Y15970794D01*
X24507385Y16108900D01*
X24453735Y16239065D01*
X24375825Y16356330D01*
X24276621Y16456228D01*
X24159903Y16534956D01*
X24030116Y16589513D01*
X23892204Y16617822D01*
X23751420Y16618805D01*
X23613126Y16592424D01*
X23482590Y16539684D01*
X23364784Y16462594D01*
X23264195Y16364090D01*
X23184655Y16247925D01*
X23129193Y16118522D01*
X23099922Y15980811D01*
X23097956Y15840037D01*
X20675000Y15840037D01*
X20675000Y23337977D01*
X20679999Y23401499D01*
X20693721Y23458653D01*
X20716218Y23512966D01*
X20746931Y23563084D01*
X20788314Y23611538D01*
X21987598Y24810822D01*
X22049103Y24861298D01*
X22113830Y24895895D01*
X22180004Y24915969D01*
X22180004Y21793896D01*
X22184692Y21746083D01*
X22188878Y21698241D01*
X22189640Y21695619D01*
X22189907Y21692894D01*
X22203797Y21646888D01*
X22217191Y21600785D01*
X22218450Y21598357D01*
X22219240Y21595739D01*
X22241781Y21553346D01*
X22263895Y21510683D01*
X22265602Y21508544D01*
X22266885Y21506132D01*
X22297249Y21468902D01*
X22327211Y21431370D01*
X22330964Y21427563D01*
X22331027Y21427486D01*
X22331098Y21427427D01*
X22332308Y21426200D01*
X25486159Y18272349D01*
X25485556Y18229137D01*
X25510971Y18090662D01*
X25562798Y17959761D01*
X25639064Y17841420D01*
X25736863Y17740146D01*
X25852471Y17659797D01*
X25981483Y17603433D01*
X26118986Y17573200D01*
X26259743Y17570252D01*
X26398392Y17594700D01*
X26529651Y17645612D01*
X26648522Y17721050D01*
X26750477Y17818139D01*
X26831631Y17933183D01*
X26888894Y18061799D01*
X26920086Y18199088D01*
X26922331Y18359894D01*
X26894985Y18498000D01*
X26841335Y18628165D01*
X26763425Y18745430D01*
X26664221Y18845328D01*
X26547503Y18924056D01*
X26417716Y18978613D01*
X26279804Y19006922D01*
X26221965Y19007326D01*
X23220004Y22009288D01*
X23220004Y24925000D01*
X28650000Y24925000D01*
X28662252Y24925602D01*
X28730534Y24932327D01*
X28754568Y24937108D01*
X28820225Y24957025D01*
X28842864Y24966402D01*
X28903375Y24998746D01*
X28923750Y25012360D01*
X28976787Y25055887D01*
X28994113Y25073213D01*
X29037640Y25126250D01*
X29051254Y25146625D01*
X29083598Y25207136D01*
X29092975Y25229775D01*
X29112892Y25295432D01*
X29114915Y25305600D01*
X31545600Y25305600D01*
X31545600Y10254400D01*
X31545600Y10254400D01*
G37*
X31545600Y10254400D02*
X29004893Y10254400D01*
X29003142Y10254584D01*
X29001120Y10254400D01*
X28998400Y10254400D01*
X28963237Y10250952D01*
X28915678Y10246624D01*
X28913972Y10246122D01*
X28910995Y10245830D01*
X28834146Y10222628D01*
X28831427Y10221828D01*
X28831333Y10221779D01*
X28826918Y10220446D01*
X28749374Y10179215D01*
X28681315Y10123707D01*
X28625333Y10056037D01*
X28583562Y9978782D01*
X28557591Y9894885D01*
X28548411Y9807542D01*
X28550000Y9790082D01*
X28550000Y3250000D01*
X18000000Y3250000D01*
X17957822Y3245865D01*
X17915678Y3242029D01*
X17914166Y3241584D01*
X17912595Y3241430D01*
X17872035Y3229185D01*
X17831427Y3217233D01*
X17830029Y3216502D01*
X17828518Y3216046D01*
X17791086Y3196143D01*
X17753597Y3176544D01*
X17752369Y3175557D01*
X17750974Y3174815D01*
X17718168Y3148059D01*
X17685151Y3121513D01*
X17684135Y3120302D01*
X17682915Y3119307D01*
X17655939Y3086699D01*
X17628699Y3054235D01*
X17627940Y3052854D01*
X17626933Y3051637D01*
X17606798Y3014398D01*
X17586389Y2977274D01*
X17585911Y2975767D01*
X17585162Y2974382D01*
X17572638Y2933923D01*
X17559834Y2893560D01*
X17559658Y2891995D01*
X17559191Y2890485D01*
X17554759Y2848317D01*
X17550044Y2806283D01*
X17550023Y2803254D01*
X17550011Y2803142D01*
X17550021Y2803030D01*
X17550000Y2800000D01*
X17550000Y450000D01*
X10875000Y450000D01*
X10875000Y1230632D01*
X11273915Y1230632D01*
X11303122Y1071499D01*
X11362681Y921069D01*
X11450324Y785073D01*
X11562714Y668691D01*
X11695568Y576355D01*
X11843827Y511582D01*
X12001844Y476840D01*
X12163599Y473451D01*
X12322932Y501546D01*
X12473774Y560053D01*
X12610378Y646745D01*
X12727543Y758320D01*
X12820804Y890526D01*
X12886611Y1038329D01*
X12922455Y1196100D01*
X12922937Y1230632D01*
X14273915Y1230632D01*
X14303122Y1071499D01*
X14362681Y921069D01*
X14450324Y785073D01*
X14562714Y668691D01*
X14695568Y576355D01*
X14843827Y511582D01*
X15001844Y476840D01*
X15163599Y473451D01*
X15322932Y501546D01*
X15473774Y560053D01*
X15610378Y646745D01*
X15727543Y758320D01*
X15820804Y890526D01*
X15886611Y1038329D01*
X15922455Y1196100D01*
X15925036Y1380895D01*
X15893610Y1539605D01*
X15831956Y1689188D01*
X15742423Y1823947D01*
X15628419Y1938749D01*
X15494289Y2029222D01*
X15345140Y2091918D01*
X15186653Y2124451D01*
X15024866Y2125580D01*
X14865941Y2095264D01*
X14715931Y2034656D01*
X14580550Y1946065D01*
X14464955Y1832866D01*
X14373549Y1699370D01*
X14309813Y1550662D01*
X14276174Y1392407D01*
X14273915Y1230632D01*
X12922937Y1230632D01*
X12925036Y1380895D01*
X12893610Y1539605D01*
X12831956Y1689188D01*
X12742423Y1823947D01*
X12628419Y1938749D01*
X12494289Y2029222D01*
X12345140Y2091918D01*
X12186653Y2124451D01*
X12024866Y2125580D01*
X11865941Y2095264D01*
X11715931Y2034656D01*
X11580550Y1946065D01*
X11464955Y1832866D01*
X11373549Y1699370D01*
X11309813Y1550662D01*
X11276174Y1392407D01*
X11273915Y1230632D01*
X10875000Y1230632D01*
X10875000Y4143860D01*
X10882798Y4223038D01*
X10904105Y4293277D01*
X10938701Y4358001D01*
X10985263Y4414737D01*
X11041999Y4461299D01*
X11106723Y4495895D01*
X11176962Y4517202D01*
X11256140Y4525000D01*
X14950000Y4525000D01*
X14962252Y4525602D01*
X15059797Y4535209D01*
X15083831Y4539989D01*
X15177628Y4568442D01*
X15200267Y4577820D01*
X15286710Y4624025D01*
X15307085Y4637639D01*
X15382853Y4699821D01*
X15400179Y4717147D01*
X15462361Y4792915D01*
X15475975Y4813290D01*
X15522180Y4899733D01*
X15531558Y4922372D01*
X15560011Y5016169D01*
X15564791Y5040203D01*
X15567330Y5065986D01*
X22260793Y5065986D01*
X22309470Y4800765D01*
X22408735Y4550049D01*
X22554808Y4323389D01*
X22742123Y4129418D01*
X22963547Y3975525D01*
X23210646Y3867570D01*
X23474007Y3809666D01*
X23743599Y3804019D01*
X24009154Y3850844D01*
X24260556Y3948356D01*
X24488231Y4092843D01*
X24586922Y4186826D01*
X25819603Y4186826D01*
X25929942Y3994930D01*
X26175048Y3879674D01*
X26437929Y3814451D01*
X26708483Y3801766D01*
X26976314Y3842108D01*
X27231127Y3933926D01*
X27345258Y3994930D01*
X27455597Y4186826D01*
X26637600Y5004823D01*
X25819603Y4186826D01*
X24586922Y4186826D01*
X24683504Y4278799D01*
X24838940Y4499144D01*
X24948617Y4745483D01*
X25008358Y5008433D01*
X25009786Y5110717D01*
X25257766Y5110717D01*
X25298108Y4842886D01*
X25389926Y4588073D01*
X25450930Y4473942D01*
X25642826Y4363603D01*
X26460823Y5181600D01*
X26814377Y5181600D01*
X27632374Y4363603D01*
X27824270Y4473942D01*
X27939526Y4719048D01*
X28004749Y4981929D01*
X28017434Y5252483D01*
X27977092Y5520314D01*
X27885274Y5775127D01*
X27824270Y5889258D01*
X27632374Y5999597D01*
X26814377Y5181600D01*
X26460823Y5181600D01*
X25642826Y5999597D01*
X25450930Y5889258D01*
X25335674Y5644152D01*
X25270451Y5381271D01*
X25257766Y5110717D01*
X25009786Y5110717D01*
X25012659Y5316426D01*
X24960283Y5580942D01*
X24857527Y5830247D01*
X24708304Y6054845D01*
X24587622Y6176374D01*
X25819603Y6176374D01*
X26637600Y5358377D01*
X27455597Y6176374D01*
X27345258Y6368270D01*
X27100152Y6483526D01*
X26837271Y6548749D01*
X26566717Y6561434D01*
X26298886Y6521092D01*
X26044073Y6429274D01*
X25929942Y6368270D01*
X25819603Y6176374D01*
X24587622Y6176374D01*
X24518299Y6246182D01*
X24294748Y6396969D01*
X24046166Y6501463D01*
X23782022Y6555684D01*
X23512377Y6557567D01*
X23247502Y6507039D01*
X22997486Y6406026D01*
X22771851Y6258375D01*
X22579192Y6069709D01*
X22426848Y5847216D01*
X22320621Y5599370D01*
X22264558Y5335611D01*
X22260793Y5065986D01*
X15567330Y5065986D01*
X15574398Y5137748D01*
X15575000Y5150000D01*
X15575000Y12287977D01*
X15579999Y12351499D01*
X15593721Y12408653D01*
X15616218Y12462966D01*
X15646931Y12513084D01*
X15688314Y12561538D01*
X16887598Y13760822D01*
X16949103Y13811298D01*
X17013830Y13845895D01*
X17084069Y13867202D01*
X17163247Y13875000D01*
X20050000Y13875000D01*
X20062252Y13875602D01*
X20159797Y13885209D01*
X20183831Y13889989D01*
X20277628Y13918442D01*
X20300267Y13927820D01*
X20386710Y13974025D01*
X20407085Y13987639D01*
X20482853Y14049821D01*
X20500179Y14067147D01*
X20562361Y14142915D01*
X20575975Y14163290D01*
X20622180Y14249733D01*
X20631558Y14272372D01*
X20660011Y14366169D01*
X20664791Y14390203D01*
X20674398Y14487748D01*
X20675000Y14500000D01*
X20675000Y15840037D01*
X23097956Y15840037D01*
X23123371Y15701562D01*
X23175198Y15570661D01*
X23191800Y15544900D01*
X23191800Y12039600D01*
X23197435Y11982132D01*
X23202466Y11924630D01*
X23203382Y11921477D01*
X23203703Y11918204D01*
X23220385Y11862950D01*
X23236496Y11807495D01*
X23238010Y11804574D01*
X23238959Y11801431D01*
X23266063Y11750456D01*
X23292631Y11699201D01*
X23294679Y11696635D01*
X23296224Y11693730D01*
X23332740Y11648958D01*
X23368731Y11603872D01*
X23373243Y11599296D01*
X23373318Y11599204D01*
X23373403Y11599134D01*
X23374858Y11597658D01*
X23426287Y11546229D01*
X23428171Y11535962D01*
X23479998Y11405061D01*
X23556264Y11286720D01*
X23654063Y11185446D01*
X23769671Y11105097D01*
X23898683Y11048733D01*
X24036186Y11018500D01*
X24176943Y11015552D01*
X24315592Y11040000D01*
X24446851Y11090912D01*
X24476614Y11109800D01*
X27897943Y11109800D01*
X27972063Y11033046D01*
X28087671Y10952697D01*
X28216683Y10896333D01*
X28354186Y10866100D01*
X28494943Y10863152D01*
X28633592Y10887600D01*
X28764851Y10938512D01*
X28883722Y11013950D01*
X28985677Y11111039D01*
X29066831Y11226083D01*
X29124094Y11354699D01*
X29155286Y11491988D01*
X29157531Y11652794D01*
X29130185Y11790900D01*
X29076535Y11921065D01*
X28998625Y12038330D01*
X28899421Y12138228D01*
X28782703Y12216956D01*
X28652916Y12271513D01*
X28571781Y12288168D01*
X28533414Y12309260D01*
X28530276Y12310256D01*
X28527384Y12311806D01*
X28472190Y12328681D01*
X28417145Y12346142D01*
X28413883Y12346508D01*
X28410736Y12347470D01*
X28353263Y12353308D01*
X28295926Y12359739D01*
X28289501Y12359784D01*
X28289382Y12359796D01*
X28289271Y12359786D01*
X28287200Y12359800D01*
X24478870Y12359800D01*
X24464703Y12369356D01*
X24441800Y12378983D01*
X24441800Y15540920D01*
X24444031Y15544083D01*
X24501294Y15672699D01*
X24532486Y15809988D01*
X24534731Y15970794D01*
X24507385Y16108900D01*
X24453735Y16239065D01*
X24375825Y16356330D01*
X24276621Y16456228D01*
X24159903Y16534956D01*
X24030116Y16589513D01*
X23892204Y16617822D01*
X23751420Y16618805D01*
X23613126Y16592424D01*
X23482590Y16539684D01*
X23364784Y16462594D01*
X23264195Y16364090D01*
X23184655Y16247925D01*
X23129193Y16118522D01*
X23099922Y15980811D01*
X23097956Y15840037D01*
X20675000Y15840037D01*
X20675000Y23337977D01*
X20679999Y23401499D01*
X20693721Y23458653D01*
X20716218Y23512966D01*
X20746931Y23563084D01*
X20788314Y23611538D01*
X21987598Y24810822D01*
X22049103Y24861298D01*
X22113830Y24895895D01*
X22180004Y24915969D01*
X22180004Y21793896D01*
X22184692Y21746083D01*
X22188878Y21698241D01*
X22189640Y21695619D01*
X22189907Y21692894D01*
X22203797Y21646888D01*
X22217191Y21600785D01*
X22218450Y21598357D01*
X22219240Y21595739D01*
X22241781Y21553346D01*
X22263895Y21510683D01*
X22265602Y21508544D01*
X22266885Y21506132D01*
X22297249Y21468902D01*
X22327211Y21431370D01*
X22330964Y21427563D01*
X22331027Y21427486D01*
X22331098Y21427427D01*
X22332308Y21426200D01*
X25486159Y18272349D01*
X25485556Y18229137D01*
X25510971Y18090662D01*
X25562798Y17959761D01*
X25639064Y17841420D01*
X25736863Y17740146D01*
X25852471Y17659797D01*
X25981483Y17603433D01*
X26118986Y17573200D01*
X26259743Y17570252D01*
X26398392Y17594700D01*
X26529651Y17645612D01*
X26648522Y17721050D01*
X26750477Y17818139D01*
X26831631Y17933183D01*
X26888894Y18061799D01*
X26920086Y18199088D01*
X26922331Y18359894D01*
X26894985Y18498000D01*
X26841335Y18628165D01*
X26763425Y18745430D01*
X26664221Y18845328D01*
X26547503Y18924056D01*
X26417716Y18978613D01*
X26279804Y19006922D01*
X26221965Y19007326D01*
X23220004Y22009288D01*
X23220004Y24925000D01*
X28650000Y24925000D01*
X28662252Y24925602D01*
X28730534Y24932327D01*
X28754568Y24937108D01*
X28820225Y24957025D01*
X28842864Y24966402D01*
X28903375Y24998746D01*
X28923750Y25012360D01*
X28976787Y25055887D01*
X28994113Y25073213D01*
X29037640Y25126250D01*
X29051254Y25146625D01*
X29083598Y25207136D01*
X29092975Y25229775D01*
X29112892Y25295432D01*
X29114915Y25305600D01*
X31545600Y25305600D01*
X31545600Y10254400D01*
G36*
X487748Y45725602D02*
X500000Y45725000D01*
X13493860Y45725000D01*
X13573038Y45717202D01*
X13643277Y45695895D01*
X13708001Y45661299D01*
X13764737Y45614737D01*
X13811299Y45558001D01*
X13845895Y45493277D01*
X13867202Y45423038D01*
X13875000Y45343860D01*
X13875000Y42500000D01*
X13875602Y42487748D01*
X13885209Y42390203D01*
X13889989Y42366169D01*
X13918442Y42272372D01*
X13927820Y42249733D01*
X13974025Y42163290D01*
X13987639Y42142915D01*
X14049821Y42067147D01*
X14067147Y42049821D01*
X14142915Y41987639D01*
X14163290Y41974025D01*
X14249733Y41927820D01*
X14272372Y41918442D01*
X14366169Y41889989D01*
X14390203Y41885209D01*
X14487748Y41875602D01*
X14500000Y41875000D01*
X28500000Y41875000D01*
X28512252Y41875602D01*
X28548400Y41879162D01*
X28548400Y25755600D01*
X28552535Y25713422D01*
X28556371Y25671278D01*
X28556816Y25669766D01*
X28556970Y25668195D01*
X28569215Y25627635D01*
X28575336Y25606839D01*
X28575000Y25600000D01*
X28575000Y25556140D01*
X28572966Y25535488D01*
X28568732Y25521529D01*
X28561857Y25508667D01*
X28552605Y25497395D01*
X28541333Y25488143D01*
X28528471Y25481268D01*
X28514512Y25477034D01*
X28493860Y25475000D01*
X23363439Y25475000D01*
X23384498Y25522299D01*
X23415690Y25659588D01*
X23417935Y25820394D01*
X23390589Y25958500D01*
X23336939Y26088665D01*
X23259029Y26205930D01*
X23159825Y26305828D01*
X23043107Y26384556D01*
X22913320Y26439113D01*
X22775408Y26467422D01*
X22634624Y26468405D01*
X22496330Y26442024D01*
X22365794Y26389284D01*
X22247988Y26312194D01*
X22147399Y26213690D01*
X22067859Y26097525D01*
X22012397Y25968122D01*
X21983126Y25830411D01*
X21981160Y25689637D01*
X22006575Y25551162D01*
X22051308Y25438180D01*
X22029479Y25431558D01*
X22006840Y25422180D01*
X21920397Y25375975D01*
X21900023Y25362361D01*
X21824254Y25300179D01*
X21815165Y25291941D01*
X20308059Y23784835D01*
X20301396Y23777628D01*
X20250441Y23717967D01*
X20238912Y23702098D01*
X20197917Y23635200D01*
X20189012Y23617724D01*
X20158987Y23545238D01*
X20152926Y23526583D01*
X20134610Y23450291D01*
X20131541Y23430918D01*
X20125385Y23352701D01*
X20125000Y23342893D01*
X20125000Y14806140D01*
X20117202Y14726962D01*
X20095895Y14656723D01*
X20061299Y14591999D01*
X20014737Y14535263D01*
X19958001Y14488701D01*
X19893277Y14454105D01*
X19823038Y14432798D01*
X19743860Y14425000D01*
X17157107Y14425000D01*
X17144855Y14424398D01*
X17047310Y14414791D01*
X17023276Y14410011D01*
X16929479Y14381558D01*
X16906840Y14372180D01*
X16820397Y14325975D01*
X16800023Y14312361D01*
X16724254Y14250179D01*
X16715165Y14241941D01*
X15208059Y12734835D01*
X15201396Y12727628D01*
X15150441Y12667967D01*
X15138912Y12652098D01*
X15097917Y12585200D01*
X15089012Y12567724D01*
X15058987Y12495238D01*
X15052926Y12476583D01*
X15034610Y12400291D01*
X15031541Y12380918D01*
X15025385Y12302701D01*
X15025000Y12292893D01*
X15025000Y5456140D01*
X15017202Y5376962D01*
X14995895Y5306723D01*
X14961299Y5241999D01*
X14914737Y5185263D01*
X14858001Y5138701D01*
X14793277Y5104105D01*
X14723038Y5082798D01*
X14643860Y5075000D01*
X10950000Y5075000D01*
X10937748Y5074398D01*
X10840203Y5064791D01*
X10816169Y5060011D01*
X10722372Y5031558D01*
X10699733Y5022180D01*
X10613290Y4975975D01*
X10592915Y4962361D01*
X10517147Y4900179D01*
X10499821Y4882853D01*
X10437639Y4807085D01*
X10424025Y4786710D01*
X10377820Y4700267D01*
X10368442Y4677628D01*
X10339989Y4583831D01*
X10335209Y4559797D01*
X10325602Y4462252D01*
X10325000Y4450000D01*
X10325000Y450000D01*
X4150000Y450000D01*
X4150000Y2800000D01*
X4145865Y2842178D01*
X4142029Y2884322D01*
X4141584Y2885834D01*
X4141430Y2887405D01*
X4129185Y2927965D01*
X4117233Y2968573D01*
X4116502Y2969971D01*
X4116046Y2971482D01*
X4096143Y3008914D01*
X4076544Y3046403D01*
X4075557Y3047631D01*
X4074815Y3049026D01*
X4048059Y3081832D01*
X4021513Y3114849D01*
X4020302Y3115865D01*
X4019307Y3117085D01*
X3986699Y3144061D01*
X3954235Y3171301D01*
X3952854Y3172060D01*
X3951637Y3173067D01*
X3914398Y3193202D01*
X3877274Y3213611D01*
X3875767Y3214089D01*
X3874382Y3214838D01*
X3833923Y3227362D01*
X3793560Y3240166D01*
X3791995Y3240342D01*
X3790485Y3240809D01*
X3748317Y3245241D01*
X3706283Y3249956D01*
X3703254Y3249977D01*
X3703142Y3249989D01*
X3703030Y3249979D01*
X3700000Y3250000D01*
X450000Y3250000D01*
X450000Y4384836D01*
X1683981Y4384836D01*
X1711417Y4235347D01*
X1767367Y4094035D01*
X1849699Y3966281D01*
X1955277Y3856952D01*
X2080079Y3770212D01*
X2219353Y3709365D01*
X2367793Y3676728D01*
X2519745Y3673545D01*
X2669421Y3699937D01*
X2811121Y3754899D01*
X2939446Y3836337D01*
X3049510Y3941149D01*
X3137119Y4065343D01*
X3198937Y4204188D01*
X3232609Y4352397D01*
X3233061Y4384836D01*
X4223981Y4384836D01*
X4251417Y4235347D01*
X4307367Y4094035D01*
X4389699Y3966281D01*
X4495277Y3856952D01*
X4620079Y3770212D01*
X4759353Y3709365D01*
X4907793Y3676728D01*
X5059745Y3673545D01*
X5209421Y3699937D01*
X5351121Y3754899D01*
X5479446Y3836337D01*
X5589510Y3941149D01*
X5677119Y4065343D01*
X5738937Y4204188D01*
X5772609Y4352397D01*
X5775033Y4525993D01*
X5745513Y4675084D01*
X5687595Y4815601D01*
X5603488Y4942193D01*
X5496394Y5050037D01*
X5370392Y5135026D01*
X5230283Y5193923D01*
X5081402Y5224484D01*
X4929420Y5225545D01*
X4780127Y5197066D01*
X4639208Y5140131D01*
X4512032Y5056909D01*
X4403443Y4950571D01*
X4317576Y4825166D01*
X4257703Y4685471D01*
X4226103Y4536806D01*
X4223981Y4384836D01*
X3233061Y4384836D01*
X3235033Y4525993D01*
X3205513Y4675084D01*
X3147595Y4815601D01*
X3063488Y4942193D01*
X2956394Y5050037D01*
X2830392Y5135026D01*
X2690283Y5193923D01*
X2541402Y5224484D01*
X2389420Y5225545D01*
X2240127Y5197066D01*
X2099208Y5140131D01*
X1972032Y5056909D01*
X1863443Y4950571D01*
X1777576Y4825166D01*
X1717703Y4685471D01*
X1686103Y4536806D01*
X1683981Y4384836D01*
X450000Y4384836D01*
X450000Y7563815D01*
X1433652Y7563815D01*
X1469939Y7366105D01*
X1543937Y7179207D01*
X1652827Y7010243D01*
X1792462Y6865646D01*
X1957524Y6750925D01*
X2052376Y6709485D01*
X1972032Y6656909D01*
X1863443Y6550571D01*
X1777576Y6425166D01*
X1717703Y6285471D01*
X1686103Y6136806D01*
X1683981Y5984836D01*
X1711417Y5835347D01*
X1767367Y5694035D01*
X1849699Y5566281D01*
X1955277Y5456952D01*
X2080079Y5370212D01*
X2219353Y5309365D01*
X2367793Y5276728D01*
X2519745Y5273545D01*
X2669421Y5299937D01*
X2811121Y5354899D01*
X2939446Y5436337D01*
X3049510Y5541149D01*
X3137119Y5665343D01*
X3198937Y5804188D01*
X3232609Y5952397D01*
X3235033Y6125993D01*
X3205513Y6275084D01*
X3147595Y6415601D01*
X3063488Y6542193D01*
X2956394Y6650037D01*
X2868807Y6709115D01*
X2924386Y6730672D01*
X3094107Y6838380D01*
X3239675Y6977003D01*
X3355545Y7141260D01*
X3437304Y7324894D01*
X3481838Y7520912D01*
X3482437Y7563815D01*
X3973652Y7563815D01*
X4009939Y7366105D01*
X4083937Y7179207D01*
X4192827Y7010243D01*
X4332462Y6865646D01*
X4497524Y6750925D01*
X4592376Y6709485D01*
X4512032Y6656909D01*
X4403443Y6550571D01*
X4317576Y6425166D01*
X4257703Y6285471D01*
X4226103Y6136806D01*
X4223981Y5984836D01*
X4251417Y5835347D01*
X4307367Y5694035D01*
X4389699Y5566281D01*
X4495277Y5456952D01*
X4620079Y5370212D01*
X4759353Y5309365D01*
X4907793Y5276728D01*
X5059745Y5273545D01*
X5209421Y5299937D01*
X5351121Y5354899D01*
X5479446Y5436337D01*
X5589510Y5541149D01*
X5677119Y5665343D01*
X5738937Y5804188D01*
X5772609Y5952397D01*
X5775033Y6125993D01*
X5745513Y6275084D01*
X5687595Y6415601D01*
X5603488Y6542193D01*
X5496394Y6650037D01*
X5408807Y6709115D01*
X5464386Y6730672D01*
X5634107Y6838380D01*
X5779675Y6977003D01*
X5895545Y7141260D01*
X5977304Y7324894D01*
X6021838Y7520912D01*
X6025044Y7750506D01*
X5986001Y7947691D01*
X5909401Y8133537D01*
X5798162Y8300965D01*
X5656521Y8443598D01*
X5489874Y8556003D01*
X5304567Y8633899D01*
X5107660Y8674318D01*
X4906652Y8675721D01*
X4709200Y8638055D01*
X4522824Y8562754D01*
X4354623Y8452687D01*
X4211005Y8312046D01*
X4097439Y8146187D01*
X4018252Y7961429D01*
X3976459Y7764809D01*
X3973652Y7563815D01*
X3482437Y7563815D01*
X3485044Y7750506D01*
X3446001Y7947691D01*
X3369401Y8133537D01*
X3258162Y8300965D01*
X3116521Y8443598D01*
X2949874Y8556003D01*
X2764567Y8633899D01*
X2567660Y8674318D01*
X2366652Y8675721D01*
X2169200Y8638055D01*
X1982824Y8562754D01*
X1814623Y8452687D01*
X1671005Y8312046D01*
X1557439Y8146187D01*
X1478252Y7961429D01*
X1436459Y7764809D01*
X1433652Y7563815D01*
X450000Y7563815D01*
X450000Y19539637D01*
X6281156Y19539637D01*
X6306571Y19401162D01*
X6358398Y19270261D01*
X6434664Y19151920D01*
X6532463Y19050646D01*
X6648071Y18970297D01*
X6777083Y18913933D01*
X6914586Y18883700D01*
X7055343Y18880752D01*
X7193992Y18905200D01*
X7325251Y18956112D01*
X7444122Y19031550D01*
X7495000Y19080000D01*
X10594608Y19080000D01*
X6882304Y15367696D01*
X6851796Y15330554D01*
X6820941Y15293783D01*
X6819624Y15291388D01*
X6817888Y15289274D01*
X6795173Y15246912D01*
X6772050Y15204850D01*
X6771224Y15202246D01*
X6769930Y15199833D01*
X6755878Y15153871D01*
X6741363Y15108114D01*
X6741058Y15105396D01*
X6740259Y15102782D01*
X6735403Y15054980D01*
X6730051Y15007260D01*
X6730013Y15001918D01*
X6730003Y15001815D01*
X6730012Y15001719D01*
X6730000Y15000000D01*
X6730000Y9445619D01*
X6697395Y9413690D01*
X6617855Y9297525D01*
X6562393Y9168122D01*
X6533122Y9030411D01*
X6531156Y8889637D01*
X6556571Y8751162D01*
X6608398Y8620261D01*
X6684664Y8501920D01*
X6782463Y8400646D01*
X6898071Y8320297D01*
X7027083Y8263933D01*
X7164586Y8233700D01*
X7305343Y8230752D01*
X7443992Y8255200D01*
X7575251Y8306112D01*
X7694122Y8381550D01*
X7796077Y8478639D01*
X7877231Y8593683D01*
X7934494Y8722299D01*
X7965686Y8859588D01*
X7967931Y9020394D01*
X7940585Y9158500D01*
X7886935Y9288665D01*
X7809025Y9405930D01*
X7770000Y9445228D01*
X7770000Y14784608D01*
X8780000Y15794608D01*
X8780000Y9445619D01*
X8747395Y9413690D01*
X8667855Y9297525D01*
X8612393Y9168122D01*
X8583122Y9030411D01*
X8581156Y8889637D01*
X8606571Y8751162D01*
X8658398Y8620261D01*
X8734664Y8501920D01*
X8832463Y8400646D01*
X8948071Y8320297D01*
X9077083Y8263933D01*
X9214586Y8233700D01*
X9355343Y8230752D01*
X9493992Y8255200D01*
X9625251Y8306112D01*
X9744122Y8381550D01*
X9846077Y8478639D01*
X9927231Y8593683D01*
X9984494Y8722299D01*
X10015686Y8859588D01*
X10017931Y9020394D01*
X9990585Y9158500D01*
X9936935Y9288665D01*
X9859025Y9405930D01*
X9820000Y9445228D01*
X9820000Y16134608D01*
X21117695Y27432304D01*
X21148179Y27469416D01*
X21179059Y27506217D01*
X21180376Y27508612D01*
X21182112Y27510726D01*
X21204818Y27553072D01*
X21227950Y27595150D01*
X21228777Y27597756D01*
X21230069Y27600166D01*
X21244112Y27646097D01*
X21258637Y27691886D01*
X21258942Y27694604D01*
X21259741Y27697218D01*
X21264597Y27745020D01*
X21269949Y27792740D01*
X21269987Y27798082D01*
X21269997Y27798185D01*
X21269988Y27798281D01*
X21270000Y27800000D01*
X21270000Y29053807D01*
X21296077Y29078639D01*
X21377231Y29193683D01*
X21434494Y29322299D01*
X21465686Y29459588D01*
X21467931Y29620394D01*
X21440585Y29758500D01*
X21386935Y29888665D01*
X21309025Y30005930D01*
X21209821Y30105828D01*
X21093103Y30184556D01*
X20963316Y30239113D01*
X20825404Y30267422D01*
X20684620Y30268405D01*
X20546326Y30242024D01*
X20415790Y30189284D01*
X20297984Y30112194D01*
X20197395Y30013690D01*
X20117855Y29897525D01*
X20062393Y29768122D01*
X20050521Y29712266D01*
X20025404Y29717422D01*
X19884620Y29718405D01*
X19849838Y29711770D01*
X19840585Y29758500D01*
X19786935Y29888665D01*
X19709025Y30005930D01*
X19609821Y30105828D01*
X19493103Y30184556D01*
X19363316Y30239113D01*
X19225404Y30267422D01*
X19084620Y30268405D01*
X18946326Y30242024D01*
X18815790Y30189284D01*
X18697984Y30112194D01*
X18597395Y30013690D01*
X18517855Y29897525D01*
X18462393Y29768122D01*
X18433122Y29630411D01*
X18431156Y29489637D01*
X18456571Y29351162D01*
X18508398Y29220261D01*
X18584664Y29101920D01*
X18630000Y29054973D01*
X18630000Y27815391D01*
X10934608Y20120000D01*
X7495400Y20120000D01*
X7459821Y20155828D01*
X7343103Y20234556D01*
X7213316Y20289113D01*
X7075404Y20317422D01*
X6934620Y20318405D01*
X6796326Y20292024D01*
X6665790Y20239284D01*
X6547984Y20162194D01*
X6447395Y20063690D01*
X6367855Y19947525D01*
X6312393Y19818122D01*
X6283122Y19680411D01*
X6281156Y19539637D01*
X450000Y19539637D01*
X450000Y31826428D01*
X3153850Y31826428D01*
X3184826Y31657650D01*
X3247995Y31498104D01*
X3340950Y31353866D01*
X3460151Y31230430D01*
X3601057Y31132497D01*
X3758302Y31063799D01*
X3925895Y31026951D01*
X4097454Y31023357D01*
X4266443Y31053155D01*
X4426427Y31115208D01*
X4571311Y31207154D01*
X4695576Y31325490D01*
X4794490Y31465710D01*
X4864284Y31622471D01*
X4902301Y31789803D01*
X4902812Y31826428D01*
X5693850Y31826428D01*
X5724826Y31657650D01*
X5787995Y31498104D01*
X5880950Y31353866D01*
X6000151Y31230430D01*
X6141057Y31132497D01*
X6298302Y31063799D01*
X6465895Y31026951D01*
X6637454Y31023357D01*
X6806443Y31053155D01*
X6966427Y31115208D01*
X7111311Y31207154D01*
X7235576Y31325490D01*
X7334490Y31465710D01*
X7404284Y31622471D01*
X7442301Y31789803D01*
X7445038Y31985798D01*
X7411708Y32154127D01*
X7346318Y32312775D01*
X7251358Y32455702D01*
X7130445Y32577461D01*
X6988185Y32673417D01*
X6829997Y32739913D01*
X6661905Y32774417D01*
X6490313Y32775615D01*
X6321756Y32743461D01*
X6162654Y32679180D01*
X6019069Y32585220D01*
X5896468Y32465161D01*
X5799521Y32323574D01*
X5731922Y32165854D01*
X5696245Y31998007D01*
X5693850Y31826428D01*
X4902812Y31826428D01*
X4905038Y31985798D01*
X4871708Y32154127D01*
X4806318Y32312775D01*
X4711358Y32455702D01*
X4590445Y32577461D01*
X4448185Y32673417D01*
X4289997Y32739913D01*
X4121905Y32774417D01*
X3950313Y32775615D01*
X3781756Y32743461D01*
X3622654Y32679180D01*
X3479069Y32585220D01*
X3356468Y32465161D01*
X3259521Y32323574D01*
X3191922Y32165854D01*
X3156245Y31998007D01*
X3153850Y31826428D01*
X450000Y31826428D01*
X450000Y41839637D01*
X2581156Y41839637D01*
X2606571Y41701162D01*
X2658398Y41570261D01*
X2734664Y41451920D01*
X2832463Y41350646D01*
X2948071Y41270297D01*
X3077083Y41213933D01*
X3214586Y41183700D01*
X3355343Y41180752D01*
X3493992Y41205200D01*
X3625251Y41256112D01*
X3744122Y41331550D01*
X3795000Y41380000D01*
X3884608Y41380000D01*
X7231759Y38032849D01*
X7231156Y37989637D01*
X7256571Y37851162D01*
X7308398Y37720261D01*
X7384664Y37601920D01*
X7482463Y37500646D01*
X7598071Y37420297D01*
X7727083Y37363933D01*
X7864586Y37333700D01*
X8005343Y37330752D01*
X8143992Y37355200D01*
X8275251Y37406112D01*
X8394122Y37481550D01*
X8496077Y37578639D01*
X8577231Y37693683D01*
X8634494Y37822299D01*
X8665686Y37959588D01*
X8667931Y38120394D01*
X8640585Y38258500D01*
X8586935Y38388665D01*
X8509025Y38505930D01*
X8409821Y38605828D01*
X8293103Y38684556D01*
X8163316Y38739113D01*
X8025404Y38767422D01*
X7967565Y38767826D01*
X4467696Y42267696D01*
X4430554Y42298204D01*
X4393783Y42329059D01*
X4391388Y42330376D01*
X4389274Y42332112D01*
X4346912Y42354827D01*
X4304850Y42377950D01*
X4302246Y42378776D01*
X4299833Y42380070D01*
X4253871Y42394122D01*
X4208114Y42408637D01*
X4205396Y42408942D01*
X4202782Y42409741D01*
X4154980Y42414597D01*
X4107260Y42419949D01*
X4101918Y42419987D01*
X4101815Y42419997D01*
X4101719Y42419988D01*
X4100000Y42420000D01*
X3795400Y42420000D01*
X3759821Y42455828D01*
X3643103Y42534556D01*
X3513316Y42589113D01*
X3375404Y42617422D01*
X3234620Y42618405D01*
X3096326Y42592024D01*
X2965790Y42539284D01*
X2847984Y42462194D01*
X2747395Y42363690D01*
X2667855Y42247525D01*
X2612393Y42118122D01*
X2583122Y41980411D01*
X2581156Y41839637D01*
X450000Y41839637D01*
X450000Y43826428D01*
X4423850Y43826428D01*
X4454826Y43657650D01*
X4517995Y43498104D01*
X4610950Y43353866D01*
X4730151Y43230430D01*
X4871057Y43132497D01*
X5028302Y43063799D01*
X5195895Y43026951D01*
X5367454Y43023357D01*
X5536443Y43053155D01*
X5696427Y43115208D01*
X5841311Y43207154D01*
X5965576Y43325490D01*
X6064490Y43465710D01*
X6134284Y43622471D01*
X6172301Y43789803D01*
X6175038Y43985798D01*
X6141708Y44154127D01*
X6076318Y44312775D01*
X5981358Y44455702D01*
X5860445Y44577461D01*
X5718185Y44673417D01*
X5559997Y44739913D01*
X5391905Y44774417D01*
X5220313Y44775615D01*
X5051756Y44743461D01*
X4892654Y44679180D01*
X4749069Y44585220D01*
X4626468Y44465161D01*
X4529521Y44323574D01*
X4461922Y44165854D01*
X4426245Y43998007D01*
X4423850Y43826428D01*
X450000Y43826428D01*
X450000Y45729320D01*
X487748Y45725602D01*
X487748Y45725602D01*
G37*
X487748Y45725602D02*
X500000Y45725000D01*
X13493860Y45725000D01*
X13573038Y45717202D01*
X13643277Y45695895D01*
X13708001Y45661299D01*
X13764737Y45614737D01*
X13811299Y45558001D01*
X13845895Y45493277D01*
X13867202Y45423038D01*
X13875000Y45343860D01*
X13875000Y42500000D01*
X13875602Y42487748D01*
X13885209Y42390203D01*
X13889989Y42366169D01*
X13918442Y42272372D01*
X13927820Y42249733D01*
X13974025Y42163290D01*
X13987639Y42142915D01*
X14049821Y42067147D01*
X14067147Y42049821D01*
X14142915Y41987639D01*
X14163290Y41974025D01*
X14249733Y41927820D01*
X14272372Y41918442D01*
X14366169Y41889989D01*
X14390203Y41885209D01*
X14487748Y41875602D01*
X14500000Y41875000D01*
X28500000Y41875000D01*
X28512252Y41875602D01*
X28548400Y41879162D01*
X28548400Y25755600D01*
X28552535Y25713422D01*
X28556371Y25671278D01*
X28556816Y25669766D01*
X28556970Y25668195D01*
X28569215Y25627635D01*
X28575336Y25606839D01*
X28575000Y25600000D01*
X28575000Y25556140D01*
X28572966Y25535488D01*
X28568732Y25521529D01*
X28561857Y25508667D01*
X28552605Y25497395D01*
X28541333Y25488143D01*
X28528471Y25481268D01*
X28514512Y25477034D01*
X28493860Y25475000D01*
X23363439Y25475000D01*
X23384498Y25522299D01*
X23415690Y25659588D01*
X23417935Y25820394D01*
X23390589Y25958500D01*
X23336939Y26088665D01*
X23259029Y26205930D01*
X23159825Y26305828D01*
X23043107Y26384556D01*
X22913320Y26439113D01*
X22775408Y26467422D01*
X22634624Y26468405D01*
X22496330Y26442024D01*
X22365794Y26389284D01*
X22247988Y26312194D01*
X22147399Y26213690D01*
X22067859Y26097525D01*
X22012397Y25968122D01*
X21983126Y25830411D01*
X21981160Y25689637D01*
X22006575Y25551162D01*
X22051308Y25438180D01*
X22029479Y25431558D01*
X22006840Y25422180D01*
X21920397Y25375975D01*
X21900023Y25362361D01*
X21824254Y25300179D01*
X21815165Y25291941D01*
X20308059Y23784835D01*
X20301396Y23777628D01*
X20250441Y23717967D01*
X20238912Y23702098D01*
X20197917Y23635200D01*
X20189012Y23617724D01*
X20158987Y23545238D01*
X20152926Y23526583D01*
X20134610Y23450291D01*
X20131541Y23430918D01*
X20125385Y23352701D01*
X20125000Y23342893D01*
X20125000Y14806140D01*
X20117202Y14726962D01*
X20095895Y14656723D01*
X20061299Y14591999D01*
X20014737Y14535263D01*
X19958001Y14488701D01*
X19893277Y14454105D01*
X19823038Y14432798D01*
X19743860Y14425000D01*
X17157107Y14425000D01*
X17144855Y14424398D01*
X17047310Y14414791D01*
X17023276Y14410011D01*
X16929479Y14381558D01*
X16906840Y14372180D01*
X16820397Y14325975D01*
X16800023Y14312361D01*
X16724254Y14250179D01*
X16715165Y14241941D01*
X15208059Y12734835D01*
X15201396Y12727628D01*
X15150441Y12667967D01*
X15138912Y12652098D01*
X15097917Y12585200D01*
X15089012Y12567724D01*
X15058987Y12495238D01*
X15052926Y12476583D01*
X15034610Y12400291D01*
X15031541Y12380918D01*
X15025385Y12302701D01*
X15025000Y12292893D01*
X15025000Y5456140D01*
X15017202Y5376962D01*
X14995895Y5306723D01*
X14961299Y5241999D01*
X14914737Y5185263D01*
X14858001Y5138701D01*
X14793277Y5104105D01*
X14723038Y5082798D01*
X14643860Y5075000D01*
X10950000Y5075000D01*
X10937748Y5074398D01*
X10840203Y5064791D01*
X10816169Y5060011D01*
X10722372Y5031558D01*
X10699733Y5022180D01*
X10613290Y4975975D01*
X10592915Y4962361D01*
X10517147Y4900179D01*
X10499821Y4882853D01*
X10437639Y4807085D01*
X10424025Y4786710D01*
X10377820Y4700267D01*
X10368442Y4677628D01*
X10339989Y4583831D01*
X10335209Y4559797D01*
X10325602Y4462252D01*
X10325000Y4450000D01*
X10325000Y450000D01*
X4150000Y450000D01*
X4150000Y2800000D01*
X4145865Y2842178D01*
X4142029Y2884322D01*
X4141584Y2885834D01*
X4141430Y2887405D01*
X4129185Y2927965D01*
X4117233Y2968573D01*
X4116502Y2969971D01*
X4116046Y2971482D01*
X4096143Y3008914D01*
X4076544Y3046403D01*
X4075557Y3047631D01*
X4074815Y3049026D01*
X4048059Y3081832D01*
X4021513Y3114849D01*
X4020302Y3115865D01*
X4019307Y3117085D01*
X3986699Y3144061D01*
X3954235Y3171301D01*
X3952854Y3172060D01*
X3951637Y3173067D01*
X3914398Y3193202D01*
X3877274Y3213611D01*
X3875767Y3214089D01*
X3874382Y3214838D01*
X3833923Y3227362D01*
X3793560Y3240166D01*
X3791995Y3240342D01*
X3790485Y3240809D01*
X3748317Y3245241D01*
X3706283Y3249956D01*
X3703254Y3249977D01*
X3703142Y3249989D01*
X3703030Y3249979D01*
X3700000Y3250000D01*
X450000Y3250000D01*
X450000Y4384836D01*
X1683981Y4384836D01*
X1711417Y4235347D01*
X1767367Y4094035D01*
X1849699Y3966281D01*
X1955277Y3856952D01*
X2080079Y3770212D01*
X2219353Y3709365D01*
X2367793Y3676728D01*
X2519745Y3673545D01*
X2669421Y3699937D01*
X2811121Y3754899D01*
X2939446Y3836337D01*
X3049510Y3941149D01*
X3137119Y4065343D01*
X3198937Y4204188D01*
X3232609Y4352397D01*
X3233061Y4384836D01*
X4223981Y4384836D01*
X4251417Y4235347D01*
X4307367Y4094035D01*
X4389699Y3966281D01*
X4495277Y3856952D01*
X4620079Y3770212D01*
X4759353Y3709365D01*
X4907793Y3676728D01*
X5059745Y3673545D01*
X5209421Y3699937D01*
X5351121Y3754899D01*
X5479446Y3836337D01*
X5589510Y3941149D01*
X5677119Y4065343D01*
X5738937Y4204188D01*
X5772609Y4352397D01*
X5775033Y4525993D01*
X5745513Y4675084D01*
X5687595Y4815601D01*
X5603488Y4942193D01*
X5496394Y5050037D01*
X5370392Y5135026D01*
X5230283Y5193923D01*
X5081402Y5224484D01*
X4929420Y5225545D01*
X4780127Y5197066D01*
X4639208Y5140131D01*
X4512032Y5056909D01*
X4403443Y4950571D01*
X4317576Y4825166D01*
X4257703Y4685471D01*
X4226103Y4536806D01*
X4223981Y4384836D01*
X3233061Y4384836D01*
X3235033Y4525993D01*
X3205513Y4675084D01*
X3147595Y4815601D01*
X3063488Y4942193D01*
X2956394Y5050037D01*
X2830392Y5135026D01*
X2690283Y5193923D01*
X2541402Y5224484D01*
X2389420Y5225545D01*
X2240127Y5197066D01*
X2099208Y5140131D01*
X1972032Y5056909D01*
X1863443Y4950571D01*
X1777576Y4825166D01*
X1717703Y4685471D01*
X1686103Y4536806D01*
X1683981Y4384836D01*
X450000Y4384836D01*
X450000Y7563815D01*
X1433652Y7563815D01*
X1469939Y7366105D01*
X1543937Y7179207D01*
X1652827Y7010243D01*
X1792462Y6865646D01*
X1957524Y6750925D01*
X2052376Y6709485D01*
X1972032Y6656909D01*
X1863443Y6550571D01*
X1777576Y6425166D01*
X1717703Y6285471D01*
X1686103Y6136806D01*
X1683981Y5984836D01*
X1711417Y5835347D01*
X1767367Y5694035D01*
X1849699Y5566281D01*
X1955277Y5456952D01*
X2080079Y5370212D01*
X2219353Y5309365D01*
X2367793Y5276728D01*
X2519745Y5273545D01*
X2669421Y5299937D01*
X2811121Y5354899D01*
X2939446Y5436337D01*
X3049510Y5541149D01*
X3137119Y5665343D01*
X3198937Y5804188D01*
X3232609Y5952397D01*
X3235033Y6125993D01*
X3205513Y6275084D01*
X3147595Y6415601D01*
X3063488Y6542193D01*
X2956394Y6650037D01*
X2868807Y6709115D01*
X2924386Y6730672D01*
X3094107Y6838380D01*
X3239675Y6977003D01*
X3355545Y7141260D01*
X3437304Y7324894D01*
X3481838Y7520912D01*
X3482437Y7563815D01*
X3973652Y7563815D01*
X4009939Y7366105D01*
X4083937Y7179207D01*
X4192827Y7010243D01*
X4332462Y6865646D01*
X4497524Y6750925D01*
X4592376Y6709485D01*
X4512032Y6656909D01*
X4403443Y6550571D01*
X4317576Y6425166D01*
X4257703Y6285471D01*
X4226103Y6136806D01*
X4223981Y5984836D01*
X4251417Y5835347D01*
X4307367Y5694035D01*
X4389699Y5566281D01*
X4495277Y5456952D01*
X4620079Y5370212D01*
X4759353Y5309365D01*
X4907793Y5276728D01*
X5059745Y5273545D01*
X5209421Y5299937D01*
X5351121Y5354899D01*
X5479446Y5436337D01*
X5589510Y5541149D01*
X5677119Y5665343D01*
X5738937Y5804188D01*
X5772609Y5952397D01*
X5775033Y6125993D01*
X5745513Y6275084D01*
X5687595Y6415601D01*
X5603488Y6542193D01*
X5496394Y6650037D01*
X5408807Y6709115D01*
X5464386Y6730672D01*
X5634107Y6838380D01*
X5779675Y6977003D01*
X5895545Y7141260D01*
X5977304Y7324894D01*
X6021838Y7520912D01*
X6025044Y7750506D01*
X5986001Y7947691D01*
X5909401Y8133537D01*
X5798162Y8300965D01*
X5656521Y8443598D01*
X5489874Y8556003D01*
X5304567Y8633899D01*
X5107660Y8674318D01*
X4906652Y8675721D01*
X4709200Y8638055D01*
X4522824Y8562754D01*
X4354623Y8452687D01*
X4211005Y8312046D01*
X4097439Y8146187D01*
X4018252Y7961429D01*
X3976459Y7764809D01*
X3973652Y7563815D01*
X3482437Y7563815D01*
X3485044Y7750506D01*
X3446001Y7947691D01*
X3369401Y8133537D01*
X3258162Y8300965D01*
X3116521Y8443598D01*
X2949874Y8556003D01*
X2764567Y8633899D01*
X2567660Y8674318D01*
X2366652Y8675721D01*
X2169200Y8638055D01*
X1982824Y8562754D01*
X1814623Y8452687D01*
X1671005Y8312046D01*
X1557439Y8146187D01*
X1478252Y7961429D01*
X1436459Y7764809D01*
X1433652Y7563815D01*
X450000Y7563815D01*
X450000Y19539637D01*
X6281156Y19539637D01*
X6306571Y19401162D01*
X6358398Y19270261D01*
X6434664Y19151920D01*
X6532463Y19050646D01*
X6648071Y18970297D01*
X6777083Y18913933D01*
X6914586Y18883700D01*
X7055343Y18880752D01*
X7193992Y18905200D01*
X7325251Y18956112D01*
X7444122Y19031550D01*
X7495000Y19080000D01*
X10594608Y19080000D01*
X6882304Y15367696D01*
X6851796Y15330554D01*
X6820941Y15293783D01*
X6819624Y15291388D01*
X6817888Y15289274D01*
X6795173Y15246912D01*
X6772050Y15204850D01*
X6771224Y15202246D01*
X6769930Y15199833D01*
X6755878Y15153871D01*
X6741363Y15108114D01*
X6741058Y15105396D01*
X6740259Y15102782D01*
X6735403Y15054980D01*
X6730051Y15007260D01*
X6730013Y15001918D01*
X6730003Y15001815D01*
X6730012Y15001719D01*
X6730000Y15000000D01*
X6730000Y9445619D01*
X6697395Y9413690D01*
X6617855Y9297525D01*
X6562393Y9168122D01*
X6533122Y9030411D01*
X6531156Y8889637D01*
X6556571Y8751162D01*
X6608398Y8620261D01*
X6684664Y8501920D01*
X6782463Y8400646D01*
X6898071Y8320297D01*
X7027083Y8263933D01*
X7164586Y8233700D01*
X7305343Y8230752D01*
X7443992Y8255200D01*
X7575251Y8306112D01*
X7694122Y8381550D01*
X7796077Y8478639D01*
X7877231Y8593683D01*
X7934494Y8722299D01*
X7965686Y8859588D01*
X7967931Y9020394D01*
X7940585Y9158500D01*
X7886935Y9288665D01*
X7809025Y9405930D01*
X7770000Y9445228D01*
X7770000Y14784608D01*
X8780000Y15794608D01*
X8780000Y9445619D01*
X8747395Y9413690D01*
X8667855Y9297525D01*
X8612393Y9168122D01*
X8583122Y9030411D01*
X8581156Y8889637D01*
X8606571Y8751162D01*
X8658398Y8620261D01*
X8734664Y8501920D01*
X8832463Y8400646D01*
X8948071Y8320297D01*
X9077083Y8263933D01*
X9214586Y8233700D01*
X9355343Y8230752D01*
X9493992Y8255200D01*
X9625251Y8306112D01*
X9744122Y8381550D01*
X9846077Y8478639D01*
X9927231Y8593683D01*
X9984494Y8722299D01*
X10015686Y8859588D01*
X10017931Y9020394D01*
X9990585Y9158500D01*
X9936935Y9288665D01*
X9859025Y9405930D01*
X9820000Y9445228D01*
X9820000Y16134608D01*
X21117695Y27432304D01*
X21148179Y27469416D01*
X21179059Y27506217D01*
X21180376Y27508612D01*
X21182112Y27510726D01*
X21204818Y27553072D01*
X21227950Y27595150D01*
X21228777Y27597756D01*
X21230069Y27600166D01*
X21244112Y27646097D01*
X21258637Y27691886D01*
X21258942Y27694604D01*
X21259741Y27697218D01*
X21264597Y27745020D01*
X21269949Y27792740D01*
X21269987Y27798082D01*
X21269997Y27798185D01*
X21269988Y27798281D01*
X21270000Y27800000D01*
X21270000Y29053807D01*
X21296077Y29078639D01*
X21377231Y29193683D01*
X21434494Y29322299D01*
X21465686Y29459588D01*
X21467931Y29620394D01*
X21440585Y29758500D01*
X21386935Y29888665D01*
X21309025Y30005930D01*
X21209821Y30105828D01*
X21093103Y30184556D01*
X20963316Y30239113D01*
X20825404Y30267422D01*
X20684620Y30268405D01*
X20546326Y30242024D01*
X20415790Y30189284D01*
X20297984Y30112194D01*
X20197395Y30013690D01*
X20117855Y29897525D01*
X20062393Y29768122D01*
X20050521Y29712266D01*
X20025404Y29717422D01*
X19884620Y29718405D01*
X19849838Y29711770D01*
X19840585Y29758500D01*
X19786935Y29888665D01*
X19709025Y30005930D01*
X19609821Y30105828D01*
X19493103Y30184556D01*
X19363316Y30239113D01*
X19225404Y30267422D01*
X19084620Y30268405D01*
X18946326Y30242024D01*
X18815790Y30189284D01*
X18697984Y30112194D01*
X18597395Y30013690D01*
X18517855Y29897525D01*
X18462393Y29768122D01*
X18433122Y29630411D01*
X18431156Y29489637D01*
X18456571Y29351162D01*
X18508398Y29220261D01*
X18584664Y29101920D01*
X18630000Y29054973D01*
X18630000Y27815391D01*
X10934608Y20120000D01*
X7495400Y20120000D01*
X7459821Y20155828D01*
X7343103Y20234556D01*
X7213316Y20289113D01*
X7075404Y20317422D01*
X6934620Y20318405D01*
X6796326Y20292024D01*
X6665790Y20239284D01*
X6547984Y20162194D01*
X6447395Y20063690D01*
X6367855Y19947525D01*
X6312393Y19818122D01*
X6283122Y19680411D01*
X6281156Y19539637D01*
X450000Y19539637D01*
X450000Y31826428D01*
X3153850Y31826428D01*
X3184826Y31657650D01*
X3247995Y31498104D01*
X3340950Y31353866D01*
X3460151Y31230430D01*
X3601057Y31132497D01*
X3758302Y31063799D01*
X3925895Y31026951D01*
X4097454Y31023357D01*
X4266443Y31053155D01*
X4426427Y31115208D01*
X4571311Y31207154D01*
X4695576Y31325490D01*
X4794490Y31465710D01*
X4864284Y31622471D01*
X4902301Y31789803D01*
X4902812Y31826428D01*
X5693850Y31826428D01*
X5724826Y31657650D01*
X5787995Y31498104D01*
X5880950Y31353866D01*
X6000151Y31230430D01*
X6141057Y31132497D01*
X6298302Y31063799D01*
X6465895Y31026951D01*
X6637454Y31023357D01*
X6806443Y31053155D01*
X6966427Y31115208D01*
X7111311Y31207154D01*
X7235576Y31325490D01*
X7334490Y31465710D01*
X7404284Y31622471D01*
X7442301Y31789803D01*
X7445038Y31985798D01*
X7411708Y32154127D01*
X7346318Y32312775D01*
X7251358Y32455702D01*
X7130445Y32577461D01*
X6988185Y32673417D01*
X6829997Y32739913D01*
X6661905Y32774417D01*
X6490313Y32775615D01*
X6321756Y32743461D01*
X6162654Y32679180D01*
X6019069Y32585220D01*
X5896468Y32465161D01*
X5799521Y32323574D01*
X5731922Y32165854D01*
X5696245Y31998007D01*
X5693850Y31826428D01*
X4902812Y31826428D01*
X4905038Y31985798D01*
X4871708Y32154127D01*
X4806318Y32312775D01*
X4711358Y32455702D01*
X4590445Y32577461D01*
X4448185Y32673417D01*
X4289997Y32739913D01*
X4121905Y32774417D01*
X3950313Y32775615D01*
X3781756Y32743461D01*
X3622654Y32679180D01*
X3479069Y32585220D01*
X3356468Y32465161D01*
X3259521Y32323574D01*
X3191922Y32165854D01*
X3156245Y31998007D01*
X3153850Y31826428D01*
X450000Y31826428D01*
X450000Y41839637D01*
X2581156Y41839637D01*
X2606571Y41701162D01*
X2658398Y41570261D01*
X2734664Y41451920D01*
X2832463Y41350646D01*
X2948071Y41270297D01*
X3077083Y41213933D01*
X3214586Y41183700D01*
X3355343Y41180752D01*
X3493992Y41205200D01*
X3625251Y41256112D01*
X3744122Y41331550D01*
X3795000Y41380000D01*
X3884608Y41380000D01*
X7231759Y38032849D01*
X7231156Y37989637D01*
X7256571Y37851162D01*
X7308398Y37720261D01*
X7384664Y37601920D01*
X7482463Y37500646D01*
X7598071Y37420297D01*
X7727083Y37363933D01*
X7864586Y37333700D01*
X8005343Y37330752D01*
X8143992Y37355200D01*
X8275251Y37406112D01*
X8394122Y37481550D01*
X8496077Y37578639D01*
X8577231Y37693683D01*
X8634494Y37822299D01*
X8665686Y37959588D01*
X8667931Y38120394D01*
X8640585Y38258500D01*
X8586935Y38388665D01*
X8509025Y38505930D01*
X8409821Y38605828D01*
X8293103Y38684556D01*
X8163316Y38739113D01*
X8025404Y38767422D01*
X7967565Y38767826D01*
X4467696Y42267696D01*
X4430554Y42298204D01*
X4393783Y42329059D01*
X4391388Y42330376D01*
X4389274Y42332112D01*
X4346912Y42354827D01*
X4304850Y42377950D01*
X4302246Y42378776D01*
X4299833Y42380070D01*
X4253871Y42394122D01*
X4208114Y42408637D01*
X4205396Y42408942D01*
X4202782Y42409741D01*
X4154980Y42414597D01*
X4107260Y42419949D01*
X4101918Y42419987D01*
X4101815Y42419997D01*
X4101719Y42419988D01*
X4100000Y42420000D01*
X3795400Y42420000D01*
X3759821Y42455828D01*
X3643103Y42534556D01*
X3513316Y42589113D01*
X3375404Y42617422D01*
X3234620Y42618405D01*
X3096326Y42592024D01*
X2965790Y42539284D01*
X2847984Y42462194D01*
X2747395Y42363690D01*
X2667855Y42247525D01*
X2612393Y42118122D01*
X2583122Y41980411D01*
X2581156Y41839637D01*
X450000Y41839637D01*
X450000Y43826428D01*
X4423850Y43826428D01*
X4454826Y43657650D01*
X4517995Y43498104D01*
X4610950Y43353866D01*
X4730151Y43230430D01*
X4871057Y43132497D01*
X5028302Y43063799D01*
X5195895Y43026951D01*
X5367454Y43023357D01*
X5536443Y43053155D01*
X5696427Y43115208D01*
X5841311Y43207154D01*
X5965576Y43325490D01*
X6064490Y43465710D01*
X6134284Y43622471D01*
X6172301Y43789803D01*
X6175038Y43985798D01*
X6141708Y44154127D01*
X6076318Y44312775D01*
X5981358Y44455702D01*
X5860445Y44577461D01*
X5718185Y44673417D01*
X5559997Y44739913D01*
X5391905Y44774417D01*
X5220313Y44775615D01*
X5051756Y44743461D01*
X4892654Y44679180D01*
X4749069Y44585220D01*
X4626468Y44465161D01*
X4529521Y44323574D01*
X4461922Y44165854D01*
X4426245Y43998007D01*
X4423850Y43826428D01*
X450000Y43826428D01*
X450000Y45729320D01*
X487748Y45725602D01*
M02*
