G04 #@! TF.FileFunction,Copper,L1,Top,Signal*
%FSLAX46Y46*%
G04 Gerber Fmt 4.6, Leading zero omitted, Abs format (unit mm)*
G04 Created by KiCad (PCBNEW 4.0.1-stable) date 13/06/2016 11:11:21*
%MOMM*%
G01*
G04 APERTURE LIST*
%ADD10C,0.100000*%
%ADD11R,2.000000X1.600000*%
%ADD12R,1.970000X0.650000*%
%ADD13R,1.600000X0.500000*%
%ADD14R,1.600000X2.000000*%
%ADD15R,3.352800X0.812800*%
%ADD16C,8.000000*%
%ADD17R,1.600000X1.600000*%
%ADD18R,1.500000X3.400000*%
%ADD19R,1.000000X4.000000*%
%ADD20R,2.000000X2.500000*%
%ADD21R,3.000000X3.500000*%
%ADD22R,3.000000X0.650000*%
%ADD23R,0.700000X1.500000*%
%ADD24R,1.500000X1.000000*%
%ADD25R,1.000000X1.000000*%
%ADD26C,0.400000*%
G04 APERTURE END LIST*
D10*
D11*
X29950000Y29200000D03*
X33350000Y29200000D03*
X15750000Y13950000D03*
X12350000Y13950000D03*
D12*
X12310000Y16200000D03*
X15790000Y16200000D03*
D13*
X12500000Y18500000D03*
X15600000Y17850000D03*
X15600000Y19150000D03*
D14*
X19300000Y8800000D03*
X19300000Y12200000D03*
X21600000Y8800000D03*
X21600000Y12200000D03*
D11*
X15750000Y20950000D03*
X12350000Y20950000D03*
D15*
X33505600Y31850000D03*
X33505600Y33120000D03*
X33505600Y34390000D03*
X33505600Y35660000D03*
X33505600Y36930000D03*
X33505600Y38200000D03*
X33505600Y39470000D03*
X33505600Y40740000D03*
X20094400Y44550000D03*
X20094400Y43280000D03*
X20094400Y42010000D03*
X20094400Y40740000D03*
X20094400Y39470000D03*
X20094400Y38200000D03*
X20094400Y36930000D03*
X20094400Y35660000D03*
X20094400Y34390000D03*
X20094400Y33120000D03*
X20094400Y31850000D03*
D16*
X4500000Y42500000D03*
D17*
X13030000Y31900000D03*
X15570000Y31900000D03*
X14300000Y41900000D03*
X14300000Y39900000D03*
X14300000Y37900000D03*
X14300000Y35900000D03*
X14300000Y33900000D03*
X14300000Y43900000D03*
D18*
X28550000Y12600000D03*
D19*
X30900000Y18600000D03*
X32900000Y18600000D03*
D18*
X35250000Y12600000D03*
D20*
X14900000Y11063000D03*
X12360000Y11063000D03*
X12360000Y6237000D03*
X14900000Y6237000D03*
X14900000Y8650000D03*
X12360000Y8650000D03*
D21*
X35190000Y24650000D03*
D22*
X28110000Y24650000D03*
X28110000Y25920000D03*
X28110000Y27190000D03*
X28110000Y23380000D03*
X28110000Y22110000D03*
D23*
X20350000Y3050000D03*
X23350000Y3050000D03*
X24850000Y3050000D03*
D24*
X17950000Y1100000D03*
X14450000Y1100000D03*
D25*
X16200000Y1600000D03*
D26*
X14450000Y1100000D02*
X14450000Y3950000D01*
X14450000Y3950000D02*
X14500000Y4000000D01*
X24500000Y26500000D02*
X23500000Y25500000D01*
X23500000Y25500000D02*
X23500000Y11219998D01*
X23500000Y11219998D02*
X22780002Y10500000D01*
X22780002Y10500000D02*
X15300000Y10500000D01*
X15300000Y10500000D02*
X14900000Y10900000D01*
X14900000Y10900000D02*
X14900000Y11063000D01*
X25235002Y27235002D02*
X24500000Y26500000D01*
X28110000Y25920000D02*
X25080000Y25920000D01*
X25080000Y25920000D02*
X24500000Y26500000D01*
X29950000Y29200000D02*
X27214998Y29200000D01*
X27214998Y29200000D02*
X25250000Y27235002D01*
X25250000Y27235002D02*
X25235002Y27235002D01*
X14313000Y4000000D02*
X10850000Y4000000D01*
X10850000Y4000000D02*
X10000000Y4850000D01*
X13100000Y41900000D02*
X14300000Y41900000D01*
X10000000Y4850000D02*
X10000000Y38800000D01*
X10000000Y38800000D02*
X13100000Y41900000D01*
X14300000Y41900000D02*
X15350000Y41900000D01*
X15350000Y41900000D02*
X17780000Y39470000D01*
X17780000Y39470000D02*
X18018000Y39470000D01*
X18018000Y39470000D02*
X20094400Y39470000D01*
X14900000Y6237000D02*
X14900000Y4400000D01*
X14900000Y4400000D02*
X14500000Y4000000D01*
X14500000Y4000000D02*
X14313000Y4000000D01*
X15750000Y13950000D02*
X17250000Y13950000D01*
X17250000Y13950000D02*
X17550000Y14250000D01*
X17550000Y14250000D02*
X17550000Y15825000D01*
X17550000Y15825000D02*
X17175000Y16200000D01*
X17175000Y16200000D02*
X15790000Y16200000D01*
X15750000Y13950000D02*
X15300000Y13500000D01*
X15300000Y13500000D02*
X15300000Y11463000D01*
X15300000Y11463000D02*
X14900000Y11063000D01*
X14900000Y8650000D02*
X14900000Y6237000D01*
X14900000Y11063000D02*
X14900000Y8650000D01*
X15350000Y11513000D02*
X14900000Y11063000D01*
X23500000Y40740000D02*
X23500000Y31450000D01*
X23500000Y31450000D02*
X21650000Y29600000D01*
X21650000Y29600000D02*
X17650000Y29600000D01*
X12350000Y20950000D02*
X10950000Y20950000D01*
X10950000Y20950000D02*
X10850011Y21049989D01*
X10850011Y22800011D02*
X17650000Y29600000D01*
X10850011Y21049989D02*
X10850011Y22800011D01*
X17650000Y29600000D02*
X17650000Y31850000D01*
X28110000Y24650000D02*
X26210000Y24650000D01*
X26210000Y24650000D02*
X24350000Y22790000D01*
X24350000Y22790000D02*
X24350000Y8150000D01*
X20350000Y4150000D02*
X20350000Y3050000D01*
X24350000Y8150000D02*
X20350000Y4150000D01*
X35782001Y29100000D02*
X35682001Y29200000D01*
X35682001Y29200000D02*
X33350000Y29200000D01*
X32900000Y18600000D02*
X33800000Y18600000D01*
X35190000Y22500000D02*
X35190000Y24650000D01*
X33800000Y18600000D02*
X35190000Y19990000D01*
X35190000Y19990000D02*
X35190000Y22500000D01*
X35782001Y31700000D02*
X35782001Y29100000D01*
X35782001Y29100000D02*
X35782001Y25132001D01*
X35782001Y33050000D02*
X35782001Y31700000D01*
X35782001Y31700000D02*
X35632001Y31850000D01*
X35632001Y31850000D02*
X33505600Y31850000D01*
X35782001Y40539999D02*
X35782001Y33050000D01*
X35712001Y33120000D02*
X33505600Y33120000D01*
X35782001Y33050000D02*
X35712001Y33120000D01*
X33505600Y40740000D02*
X35582000Y40740000D01*
X35582000Y40740000D02*
X35782001Y40539999D01*
X35782001Y25132001D02*
X35300000Y24650000D01*
X35300000Y24650000D02*
X35190000Y24650000D01*
X12350000Y20950000D02*
X13550000Y20950000D01*
X13550000Y20950000D02*
X13950000Y20550000D01*
X14350000Y19150000D02*
X15350000Y19150000D01*
X13950000Y20550000D02*
X13950000Y19550000D01*
X13950000Y19550000D02*
X14350000Y19150000D01*
X15350000Y19150000D02*
X15600000Y19150000D01*
X17650000Y33120000D02*
X17650000Y31850000D01*
X17650000Y31850000D02*
X20094400Y31850000D01*
X31429200Y40740000D02*
X23500000Y40740000D01*
X23500000Y40740000D02*
X20094400Y40740000D01*
X17400000Y43250000D02*
X17400000Y43900000D01*
X17400000Y41358000D02*
X17400000Y43250000D01*
X17400000Y43250000D02*
X17430000Y43280000D01*
X17430000Y43280000D02*
X20094400Y43280000D01*
X20094400Y40740000D02*
X18018000Y40740000D01*
X18018000Y40740000D02*
X17400000Y41358000D01*
X17400000Y43900000D02*
X18050000Y44550000D01*
X18050000Y44550000D02*
X20094400Y44550000D01*
X33505600Y40740000D02*
X31429200Y40740000D01*
X14300000Y33900000D02*
X16350000Y33900000D01*
X16350000Y33900000D02*
X17130000Y33120000D01*
X17130000Y33120000D02*
X17650000Y33120000D01*
X17650000Y33120000D02*
X20094400Y33120000D01*
X32900000Y20100000D02*
X32900000Y18600000D01*
X12310000Y16200000D02*
X12310000Y13990000D01*
X12310000Y13990000D02*
X12350000Y13950000D01*
X12350000Y13950000D02*
X12350000Y11073000D01*
X12350000Y11073000D02*
X12360000Y11063000D01*
X12500000Y18500000D02*
X11250000Y18500000D01*
X11250000Y18500000D02*
X10850000Y18100000D01*
X10850000Y18100000D02*
X10850000Y16400000D01*
X10850000Y16400000D02*
X11050000Y16200000D01*
X11050000Y16200000D02*
X12310000Y16200000D01*
X12360000Y8650000D02*
X12360000Y6237000D01*
X12360000Y11063000D02*
X12360000Y8650000D01*
X33505600Y36930000D02*
X30580000Y36930000D01*
X30580000Y36930000D02*
X18200000Y24550000D01*
X18200000Y24550000D02*
X18200000Y20950000D01*
X18200000Y20950000D02*
X18200000Y18750000D01*
X18200000Y20950000D02*
X15750000Y20950000D01*
X18200000Y18750000D02*
X17300000Y17850000D01*
X17300000Y17850000D02*
X15600000Y17850000D01*
X15950000Y20950000D02*
X15750000Y20950000D01*
X33505600Y35660000D02*
X30860000Y35660000D01*
X19300000Y24100000D02*
X19300000Y13600000D01*
X30860000Y35660000D02*
X19300000Y24100000D01*
X19300000Y13600000D02*
X19300000Y12200000D01*
X33505600Y34390000D02*
X30940000Y34390000D01*
X30940000Y34390000D02*
X21600000Y25050000D01*
X21600000Y25050000D02*
X21600000Y13600000D01*
X21600000Y13600000D02*
X21600000Y12200000D01*
X28110000Y22110000D02*
X26010000Y22110000D01*
X26010000Y22110000D02*
X25250000Y21350000D01*
X25250000Y21350000D02*
X25250000Y7600000D01*
X25250000Y7600000D02*
X23350000Y5700000D01*
X23350000Y5700000D02*
X23350000Y4200000D01*
X23350000Y4200000D02*
X23350000Y3050000D01*
X14300000Y37900000D02*
X15500000Y37900000D01*
X15500000Y37900000D02*
X17740000Y35660000D01*
X17740000Y35660000D02*
X18018000Y35660000D01*
X18018000Y35660000D02*
X20094400Y35660000D01*
X14300000Y35900000D02*
X15900000Y35900000D01*
X18018000Y34390000D02*
X20094400Y34390000D01*
X15900000Y35900000D02*
X17410000Y34390000D01*
X17410000Y34390000D02*
X18018000Y34390000D01*
X30900000Y18600000D02*
X30900000Y16050000D01*
X27450000Y15350000D02*
X26200000Y14100000D01*
X30900000Y16050000D02*
X30200000Y15350000D01*
X24850000Y5550000D02*
X24850000Y3050000D01*
X30200000Y15350000D02*
X27450000Y15350000D01*
X26200000Y14100000D02*
X26200000Y6900000D01*
X26200000Y6900000D02*
X24850000Y5550000D01*
X30900000Y21250000D02*
X30900000Y26300000D01*
X30900000Y26300000D02*
X30010000Y27190000D01*
X30010000Y27190000D02*
X28110000Y27190000D01*
X30900000Y21250000D02*
X30900000Y18600000D01*
X17950000Y3718614D02*
X17950000Y1100000D01*
X21600000Y7368614D02*
X17950000Y3718614D01*
X21600000Y8800000D02*
X21600000Y7368614D01*
X16200000Y3100000D02*
X16200000Y1600000D01*
X19300000Y8800000D02*
X19300000Y6200000D01*
X19300000Y6200000D02*
X16200000Y3100000D01*
X14300000Y39900000D02*
X15500000Y39900000D01*
X15500000Y39900000D02*
X17200000Y38200000D01*
X17200000Y38200000D02*
X18018000Y38200000D01*
X18018000Y38200000D02*
X20094400Y38200000D01*
M02*
