%TF.GenerationSoftware,KiCad,Pcbnew,4.0.1-stable*%
%TF.CreationDate,2016-06-24T15:57:22+01:00*%
%TF.ProjectId,StrokeRehabilitation,5374726F6B655265686162696C697461,rev?*%
%TF.FileFunction,Legend,Bot*%
%FSLAX46Y46*%
G04 Gerber Fmt 4.6, Leading zero omitted, Abs format (unit mm)*
G04 Created by KiCad (PCBNEW 4.0.1-stable) date 24/06/2016 15:57:22*
%MOMM*%
G01*
G04 APERTURE LIST*
%ADD10C,0.100000*%
%ADD11C,0.250000*%
%ADD12C,1.300000*%
%ADD13C,1.400000*%
%ADD14C,2.400000*%
%ADD15C,0.500000*%
%ADD16C,1.200000*%
%ADD17C,1.700000*%
%ADD18C,1.085800*%
G04 APERTURE END LIST*
D10*
D11*
X10378571Y30966667D02*
X10426190Y30823810D01*
X10473810Y30776191D01*
X10569048Y30728572D01*
X10711905Y30728572D01*
X10807143Y30776191D01*
X10854762Y30823810D01*
X10902381Y30919048D01*
X10902381Y31300001D01*
X9902381Y31300001D01*
X9902381Y30966667D01*
X9950000Y30871429D01*
X9997619Y30823810D01*
X10092857Y30776191D01*
X10188095Y30776191D01*
X10283333Y30823810D01*
X10330952Y30871429D01*
X10378571Y30966667D01*
X10378571Y31300001D01*
X10902381Y29823810D02*
X10902381Y30300001D01*
X9902381Y30300001D01*
X10378571Y29490477D02*
X10378571Y29157143D01*
X10902381Y29014286D02*
X10902381Y29490477D01*
X9902381Y29490477D01*
X9902381Y29014286D01*
X9902381Y28728572D02*
X10902381Y28395239D01*
X9902381Y28061905D01*
X10902381Y27728572D02*
X10235714Y27728572D01*
X9902381Y27728572D02*
X9950000Y27776191D01*
X9997619Y27728572D01*
X9950000Y27680953D01*
X9902381Y27728572D01*
X9997619Y27728572D01*
X10902381Y27252382D02*
X9902381Y27252382D01*
X10283333Y27252382D02*
X10235714Y27157144D01*
X10235714Y26966667D01*
X10283333Y26871429D01*
X10330952Y26823810D01*
X10426190Y26776191D01*
X10711905Y26776191D01*
X10807143Y26823810D01*
X10854762Y26871429D01*
X10902381Y26966667D01*
X10902381Y27157144D01*
X10854762Y27252382D01*
X10902381Y26347620D02*
X10235714Y26347620D01*
X10426190Y26347620D02*
X10330952Y26300001D01*
X10283333Y26252382D01*
X10235714Y26157144D01*
X10235714Y26061905D01*
X10902381Y25300000D02*
X10378571Y25300000D01*
X10283333Y25347619D01*
X10235714Y25442857D01*
X10235714Y25633334D01*
X10283333Y25728572D01*
X10854762Y25300000D02*
X10902381Y25395238D01*
X10902381Y25633334D01*
X10854762Y25728572D01*
X10759524Y25776191D01*
X10664286Y25776191D01*
X10569048Y25728572D01*
X10521429Y25633334D01*
X10521429Y25395238D01*
X10473810Y25300000D01*
X10235714Y24966667D02*
X10235714Y24585715D01*
X9902381Y24823810D02*
X10759524Y24823810D01*
X10854762Y24776191D01*
X10902381Y24680953D01*
X10902381Y24585715D01*
X10902381Y24109524D02*
X10854762Y24204762D01*
X10807143Y24252381D01*
X10711905Y24300000D01*
X10426190Y24300000D01*
X10330952Y24252381D01*
X10283333Y24204762D01*
X10235714Y24109524D01*
X10235714Y23966666D01*
X10283333Y23871428D01*
X10330952Y23823809D01*
X10426190Y23776190D01*
X10711905Y23776190D01*
X10807143Y23823809D01*
X10854762Y23871428D01*
X10902381Y23966666D01*
X10902381Y24109524D01*
X10902381Y23347619D02*
X10235714Y23347619D01*
X10426190Y23347619D02*
X10330952Y23300000D01*
X10283333Y23252381D01*
X10235714Y23157143D01*
X10235714Y23061904D01*
X10235714Y22061904D02*
X10902381Y21823809D01*
X10235714Y21585713D01*
X9902381Y21014285D02*
X9902381Y20919046D01*
X9950000Y20823808D01*
X9997619Y20776189D01*
X10092857Y20728570D01*
X10283333Y20680951D01*
X10521429Y20680951D01*
X10711905Y20728570D01*
X10807143Y20776189D01*
X10854762Y20823808D01*
X10902381Y20919046D01*
X10902381Y21014285D01*
X10854762Y21109523D01*
X10807143Y21157142D01*
X10711905Y21204761D01*
X10521429Y21252380D01*
X10283333Y21252380D01*
X10092857Y21204761D01*
X9997619Y21157142D01*
X9950000Y21109523D01*
X9902381Y21014285D01*
X10807143Y20252380D02*
X10854762Y20204761D01*
X10902381Y20252380D01*
X10854762Y20299999D01*
X10807143Y20252380D01*
X10902381Y20252380D01*
X9902381Y19871428D02*
X9902381Y19252380D01*
X10283333Y19585714D01*
X10283333Y19442856D01*
X10330952Y19347618D01*
X10378571Y19299999D01*
X10473810Y19252380D01*
X10711905Y19252380D01*
X10807143Y19299999D01*
X10854762Y19347618D01*
X10902381Y19442856D01*
X10902381Y19728571D01*
X10854762Y19823809D01*
X10807143Y19871428D01*
X12552381Y35252382D02*
X11552381Y35252382D01*
X11552381Y35014287D01*
X11600000Y34871429D01*
X11695238Y34776191D01*
X11790476Y34728572D01*
X11980952Y34680953D01*
X12123810Y34680953D01*
X12314286Y34728572D01*
X12409524Y34776191D01*
X12504762Y34871429D01*
X12552381Y35014287D01*
X12552381Y35252382D01*
X12504762Y33871429D02*
X12552381Y33966667D01*
X12552381Y34157144D01*
X12504762Y34252382D01*
X12409524Y34300001D01*
X12028571Y34300001D01*
X11933333Y34252382D01*
X11885714Y34157144D01*
X11885714Y33966667D01*
X11933333Y33871429D01*
X12028571Y33823810D01*
X12123810Y33823810D01*
X12219048Y34300001D01*
X12504762Y33442858D02*
X12552381Y33347620D01*
X12552381Y33157144D01*
X12504762Y33061905D01*
X12409524Y33014286D01*
X12361905Y33014286D01*
X12266667Y33061905D01*
X12219048Y33157144D01*
X12219048Y33300001D01*
X12171429Y33395239D01*
X12076190Y33442858D01*
X12028571Y33442858D01*
X11933333Y33395239D01*
X11885714Y33300001D01*
X11885714Y33157144D01*
X11933333Y33061905D01*
X12552381Y32585715D02*
X11885714Y32585715D01*
X11552381Y32585715D02*
X11600000Y32633334D01*
X11647619Y32585715D01*
X11600000Y32538096D01*
X11552381Y32585715D01*
X11647619Y32585715D01*
X11885714Y31680953D02*
X12695238Y31680953D01*
X12790476Y31728572D01*
X12838095Y31776191D01*
X12885714Y31871430D01*
X12885714Y32014287D01*
X12838095Y32109525D01*
X12504762Y31680953D02*
X12552381Y31776191D01*
X12552381Y31966668D01*
X12504762Y32061906D01*
X12457143Y32109525D01*
X12361905Y32157144D01*
X12076190Y32157144D01*
X11980952Y32109525D01*
X11933333Y32061906D01*
X11885714Y31966668D01*
X11885714Y31776191D01*
X11933333Y31680953D01*
X11885714Y31204763D02*
X12552381Y31204763D01*
X11980952Y31204763D02*
X11933333Y31157144D01*
X11885714Y31061906D01*
X11885714Y30919048D01*
X11933333Y30823810D01*
X12028571Y30776191D01*
X12552381Y30776191D01*
X12504762Y29919048D02*
X12552381Y30014286D01*
X12552381Y30204763D01*
X12504762Y30300001D01*
X12409524Y30347620D01*
X12028571Y30347620D01*
X11933333Y30300001D01*
X11885714Y30204763D01*
X11885714Y30014286D01*
X11933333Y29919048D01*
X12028571Y29871429D01*
X12123810Y29871429D01*
X12219048Y30347620D01*
X12552381Y29014286D02*
X11552381Y29014286D01*
X12504762Y29014286D02*
X12552381Y29109524D01*
X12552381Y29300001D01*
X12504762Y29395239D01*
X12457143Y29442858D01*
X12361905Y29490477D01*
X12076190Y29490477D01*
X11980952Y29442858D01*
X11933333Y29395239D01*
X11885714Y29300001D01*
X11885714Y29109524D01*
X11933333Y29014286D01*
X12552381Y27776191D02*
X11552381Y27776191D01*
X11933333Y27776191D02*
X11885714Y27680953D01*
X11885714Y27490476D01*
X11933333Y27395238D01*
X11980952Y27347619D01*
X12076190Y27300000D01*
X12361905Y27300000D01*
X12457143Y27347619D01*
X12504762Y27395238D01*
X12552381Y27490476D01*
X12552381Y27680953D01*
X12504762Y27776191D01*
X11885714Y26966667D02*
X12552381Y26728572D01*
X11885714Y26490476D02*
X12552381Y26728572D01*
X12790476Y26823810D01*
X12838095Y26871429D01*
X12885714Y26966667D01*
X12552381Y25347619D02*
X11552381Y25347619D01*
X12552381Y24442857D02*
X12028571Y24442857D01*
X11933333Y24490476D01*
X11885714Y24585714D01*
X11885714Y24776191D01*
X11933333Y24871429D01*
X12504762Y24442857D02*
X12552381Y24538095D01*
X12552381Y24776191D01*
X12504762Y24871429D01*
X12409524Y24919048D01*
X12314286Y24919048D01*
X12219048Y24871429D01*
X12171429Y24776191D01*
X12171429Y24538095D01*
X12123810Y24442857D01*
X12552381Y23966667D02*
X11885714Y23966667D01*
X11552381Y23966667D02*
X11600000Y24014286D01*
X11647619Y23966667D01*
X11600000Y23919048D01*
X11552381Y23966667D01*
X11647619Y23966667D01*
X11885714Y23490477D02*
X12552381Y23490477D01*
X11980952Y23490477D02*
X11933333Y23442858D01*
X11885714Y23347620D01*
X11885714Y23204762D01*
X11933333Y23109524D01*
X12028571Y23061905D01*
X12552381Y23061905D01*
X12457143Y21252381D02*
X12504762Y21300000D01*
X12552381Y21442857D01*
X12552381Y21538095D01*
X12504762Y21680953D01*
X12409524Y21776191D01*
X12314286Y21823810D01*
X12123810Y21871429D01*
X11980952Y21871429D01*
X11790476Y21823810D01*
X11695238Y21776191D01*
X11600000Y21680953D01*
X11552381Y21538095D01*
X11552381Y21442857D01*
X11600000Y21300000D01*
X11647619Y21252381D01*
X12552381Y20823810D02*
X11552381Y20823810D01*
X12552381Y20395238D02*
X12028571Y20395238D01*
X11933333Y20442857D01*
X11885714Y20538095D01*
X11885714Y20680953D01*
X11933333Y20776191D01*
X11980952Y20823810D01*
X12552381Y19490476D02*
X12028571Y19490476D01*
X11933333Y19538095D01*
X11885714Y19633333D01*
X11885714Y19823810D01*
X11933333Y19919048D01*
X12504762Y19490476D02*
X12552381Y19585714D01*
X12552381Y19823810D01*
X12504762Y19919048D01*
X12409524Y19966667D01*
X12314286Y19966667D01*
X12219048Y19919048D01*
X12171429Y19823810D01*
X12171429Y19585714D01*
X12123810Y19490476D01*
X12552381Y18871429D02*
X12504762Y18966667D01*
X12409524Y19014286D01*
X11552381Y19014286D01*
X12552381Y18490476D02*
X11885714Y18490476D01*
X11980952Y18490476D02*
X11933333Y18442857D01*
X11885714Y18347619D01*
X11885714Y18204761D01*
X11933333Y18109523D01*
X12028571Y18061904D01*
X12552381Y18061904D01*
X12028571Y18061904D02*
X11933333Y18014285D01*
X11885714Y17919047D01*
X11885714Y17776190D01*
X11933333Y17680952D01*
X12028571Y17633333D01*
X12552381Y17633333D01*
X12504762Y16776190D02*
X12552381Y16871428D01*
X12552381Y17061905D01*
X12504762Y17157143D01*
X12409524Y17204762D01*
X12028571Y17204762D01*
X11933333Y17157143D01*
X11885714Y17061905D01*
X11885714Y16871428D01*
X11933333Y16776190D01*
X12028571Y16728571D01*
X12123810Y16728571D01*
X12219048Y17204762D01*
X12552381Y16300000D02*
X11885714Y16300000D01*
X12076190Y16300000D02*
X11980952Y16252381D01*
X11933333Y16204762D01*
X11885714Y16109524D01*
X11885714Y16014285D01*
X12504762Y15728571D02*
X12552381Y15633333D01*
X12552381Y15442857D01*
X12504762Y15347618D01*
X12409524Y15299999D01*
X12361905Y15299999D01*
X12266667Y15347618D01*
X12219048Y15442857D01*
X12219048Y15585714D01*
X12171429Y15680952D01*
X12076190Y15728571D01*
X12028571Y15728571D01*
X11933333Y15680952D01*
X11885714Y15585714D01*
X11885714Y15442857D01*
X11933333Y15347618D01*
X14202381Y42657144D02*
X13202381Y42657144D01*
X14202381Y42228572D02*
X13678571Y42228572D01*
X13583333Y42276191D01*
X13535714Y42371429D01*
X13535714Y42514287D01*
X13583333Y42609525D01*
X13630952Y42657144D01*
X13535714Y41895239D02*
X13535714Y41514287D01*
X13202381Y41752382D02*
X14059524Y41752382D01*
X14154762Y41704763D01*
X14202381Y41609525D01*
X14202381Y41514287D01*
X13535714Y41323810D02*
X13535714Y40942858D01*
X13202381Y41180953D02*
X14059524Y41180953D01*
X14154762Y41133334D01*
X14202381Y41038096D01*
X14202381Y40942858D01*
X13535714Y40609524D02*
X14535714Y40609524D01*
X13583333Y40609524D02*
X13535714Y40514286D01*
X13535714Y40323809D01*
X13583333Y40228571D01*
X13630952Y40180952D01*
X13726190Y40133333D01*
X14011905Y40133333D01*
X14107143Y40180952D01*
X14154762Y40228571D01*
X14202381Y40323809D01*
X14202381Y40514286D01*
X14154762Y40609524D01*
X14154762Y39752381D02*
X14202381Y39657143D01*
X14202381Y39466667D01*
X14154762Y39371428D01*
X14059524Y39323809D01*
X14011905Y39323809D01*
X13916667Y39371428D01*
X13869048Y39466667D01*
X13869048Y39609524D01*
X13821429Y39704762D01*
X13726190Y39752381D01*
X13678571Y39752381D01*
X13583333Y39704762D01*
X13535714Y39609524D01*
X13535714Y39466667D01*
X13583333Y39371428D01*
X14107143Y38895238D02*
X14154762Y38847619D01*
X14202381Y38895238D01*
X14154762Y38942857D01*
X14107143Y38895238D01*
X14202381Y38895238D01*
X13583333Y38895238D02*
X13630952Y38847619D01*
X13678571Y38895238D01*
X13630952Y38942857D01*
X13583333Y38895238D01*
X13678571Y38895238D01*
X13154762Y37704762D02*
X14440476Y38561905D01*
X13154762Y36657143D02*
X14440476Y37514286D01*
X13535714Y35895238D02*
X14345238Y35895238D01*
X14440476Y35942857D01*
X14488095Y35990476D01*
X14535714Y36085715D01*
X14535714Y36228572D01*
X14488095Y36323810D01*
X14154762Y35895238D02*
X14202381Y35990476D01*
X14202381Y36180953D01*
X14154762Y36276191D01*
X14107143Y36323810D01*
X14011905Y36371429D01*
X13726190Y36371429D01*
X13630952Y36323810D01*
X13583333Y36276191D01*
X13535714Y36180953D01*
X13535714Y35990476D01*
X13583333Y35895238D01*
X14202381Y35419048D02*
X13535714Y35419048D01*
X13202381Y35419048D02*
X13250000Y35466667D01*
X13297619Y35419048D01*
X13250000Y35371429D01*
X13202381Y35419048D01*
X13297619Y35419048D01*
X13535714Y35085715D02*
X13535714Y34704763D01*
X13202381Y34942858D02*
X14059524Y34942858D01*
X14154762Y34895239D01*
X14202381Y34800001D01*
X14202381Y34704763D01*
X14202381Y34371429D02*
X13202381Y34371429D01*
X14202381Y33942857D02*
X13678571Y33942857D01*
X13583333Y33990476D01*
X13535714Y34085714D01*
X13535714Y34228572D01*
X13583333Y34323810D01*
X13630952Y34371429D01*
X13535714Y33038095D02*
X14202381Y33038095D01*
X13535714Y33466667D02*
X14059524Y33466667D01*
X14154762Y33419048D01*
X14202381Y33323810D01*
X14202381Y33180952D01*
X14154762Y33085714D01*
X14107143Y33038095D01*
X14202381Y32561905D02*
X13202381Y32561905D01*
X13583333Y32561905D02*
X13535714Y32466667D01*
X13535714Y32276190D01*
X13583333Y32180952D01*
X13630952Y32133333D01*
X13726190Y32085714D01*
X14011905Y32085714D01*
X14107143Y32133333D01*
X14154762Y32180952D01*
X14202381Y32276190D01*
X14202381Y32466667D01*
X14154762Y32561905D01*
X14107143Y31657143D02*
X14154762Y31609524D01*
X14202381Y31657143D01*
X14154762Y31704762D01*
X14107143Y31657143D01*
X14202381Y31657143D01*
X14154762Y30752381D02*
X14202381Y30847619D01*
X14202381Y31038096D01*
X14154762Y31133334D01*
X14107143Y31180953D01*
X14011905Y31228572D01*
X13726190Y31228572D01*
X13630952Y31180953D01*
X13583333Y31133334D01*
X13535714Y31038096D01*
X13535714Y30847619D01*
X13583333Y30752381D01*
X14202381Y30180953D02*
X14154762Y30276191D01*
X14107143Y30323810D01*
X14011905Y30371429D01*
X13726190Y30371429D01*
X13630952Y30323810D01*
X13583333Y30276191D01*
X13535714Y30180953D01*
X13535714Y30038095D01*
X13583333Y29942857D01*
X13630952Y29895238D01*
X13726190Y29847619D01*
X14011905Y29847619D01*
X14107143Y29895238D01*
X14154762Y29942857D01*
X14202381Y30038095D01*
X14202381Y30180953D01*
X14202381Y29419048D02*
X13535714Y29419048D01*
X13630952Y29419048D02*
X13583333Y29371429D01*
X13535714Y29276191D01*
X13535714Y29133333D01*
X13583333Y29038095D01*
X13678571Y28990476D01*
X14202381Y28990476D01*
X13678571Y28990476D02*
X13583333Y28942857D01*
X13535714Y28847619D01*
X13535714Y28704762D01*
X13583333Y28609524D01*
X13678571Y28561905D01*
X14202381Y28561905D01*
X13154762Y27371429D02*
X14440476Y28228572D01*
X14202381Y27038096D02*
X13535714Y27038096D01*
X13202381Y27038096D02*
X13250000Y27085715D01*
X13297619Y27038096D01*
X13250000Y26990477D01*
X13202381Y27038096D01*
X13297619Y27038096D01*
X14154762Y26133334D02*
X14202381Y26228572D01*
X14202381Y26419049D01*
X14154762Y26514287D01*
X14107143Y26561906D01*
X14011905Y26609525D01*
X13726190Y26609525D01*
X13630952Y26561906D01*
X13583333Y26514287D01*
X13535714Y26419049D01*
X13535714Y26228572D01*
X13583333Y26133334D01*
X14154762Y25276191D02*
X14202381Y25371429D01*
X14202381Y25561906D01*
X14154762Y25657144D01*
X14107143Y25704763D01*
X14011905Y25752382D01*
X13726190Y25752382D01*
X13630952Y25704763D01*
X13583333Y25657144D01*
X13535714Y25561906D01*
X13535714Y25371429D01*
X13583333Y25276191D01*
X14202381Y24847620D02*
X13202381Y24847620D01*
X14202381Y24419048D02*
X13678571Y24419048D01*
X13583333Y24466667D01*
X13535714Y24561905D01*
X13535714Y24704763D01*
X13583333Y24800001D01*
X13630952Y24847620D01*
X14202381Y23514286D02*
X13678571Y23514286D01*
X13583333Y23561905D01*
X13535714Y23657143D01*
X13535714Y23847620D01*
X13583333Y23942858D01*
X14154762Y23514286D02*
X14202381Y23609524D01*
X14202381Y23847620D01*
X14154762Y23942858D01*
X14059524Y23990477D01*
X13964286Y23990477D01*
X13869048Y23942858D01*
X13821429Y23847620D01*
X13821429Y23609524D01*
X13773810Y23514286D01*
X14202381Y22895239D02*
X14154762Y22990477D01*
X14059524Y23038096D01*
X13202381Y23038096D01*
X14202381Y22514286D02*
X13535714Y22514286D01*
X13630952Y22514286D02*
X13583333Y22466667D01*
X13535714Y22371429D01*
X13535714Y22228571D01*
X13583333Y22133333D01*
X13678571Y22085714D01*
X14202381Y22085714D01*
X13678571Y22085714D02*
X13583333Y22038095D01*
X13535714Y21942857D01*
X13535714Y21800000D01*
X13583333Y21704762D01*
X13678571Y21657143D01*
X14202381Y21657143D01*
X14154762Y20800000D02*
X14202381Y20895238D01*
X14202381Y21085715D01*
X14154762Y21180953D01*
X14059524Y21228572D01*
X13678571Y21228572D01*
X13583333Y21180953D01*
X13535714Y21085715D01*
X13535714Y20895238D01*
X13583333Y20800000D01*
X13678571Y20752381D01*
X13773810Y20752381D01*
X13869048Y21228572D01*
X14202381Y20323810D02*
X13535714Y20323810D01*
X13726190Y20323810D02*
X13630952Y20276191D01*
X13583333Y20228572D01*
X13535714Y20133334D01*
X13535714Y20038095D01*
X14154762Y19752381D02*
X14202381Y19657143D01*
X14202381Y19466667D01*
X14154762Y19371428D01*
X14059524Y19323809D01*
X14011905Y19323809D01*
X13916667Y19371428D01*
X13869048Y19466667D01*
X13869048Y19609524D01*
X13821429Y19704762D01*
X13726190Y19752381D01*
X13678571Y19752381D01*
X13583333Y19704762D01*
X13535714Y19609524D01*
X13535714Y19466667D01*
X13583333Y19371428D01*
X13154762Y18180952D02*
X14440476Y19038095D01*
X14154762Y17895238D02*
X14202381Y17752381D01*
X14202381Y17514285D01*
X14154762Y17419047D01*
X14107143Y17371428D01*
X14011905Y17323809D01*
X13916667Y17323809D01*
X13821429Y17371428D01*
X13773810Y17419047D01*
X13726190Y17514285D01*
X13678571Y17704762D01*
X13630952Y17800000D01*
X13583333Y17847619D01*
X13488095Y17895238D01*
X13392857Y17895238D01*
X13297619Y17847619D01*
X13250000Y17800000D01*
X13202381Y17704762D01*
X13202381Y17466666D01*
X13250000Y17323809D01*
X14202381Y16895238D02*
X13535714Y16895238D01*
X13202381Y16895238D02*
X13250000Y16942857D01*
X13297619Y16895238D01*
X13250000Y16847619D01*
X13202381Y16895238D01*
X13297619Y16895238D01*
X13535714Y16561905D02*
X13535714Y16180953D01*
X13202381Y16419048D02*
X14059524Y16419048D01*
X14154762Y16371429D01*
X14202381Y16276191D01*
X14202381Y16180953D01*
X13821429Y15847619D02*
X13821429Y15085714D01*
X13202381Y14752381D02*
X13202381Y14180952D01*
X14202381Y14466667D02*
X13202381Y14466667D01*
X14202381Y13704762D02*
X14154762Y13800000D01*
X14107143Y13847619D01*
X14011905Y13895238D01*
X13726190Y13895238D01*
X13630952Y13847619D01*
X13583333Y13800000D01*
X13535714Y13704762D01*
X13535714Y13561904D01*
X13583333Y13466666D01*
X13630952Y13419047D01*
X13726190Y13371428D01*
X14011905Y13371428D01*
X14107143Y13419047D01*
X14154762Y13466666D01*
X14202381Y13561904D01*
X14202381Y13704762D01*
X13821429Y12942857D02*
X13821429Y12180952D01*
X14154762Y11752381D02*
X14202381Y11609524D01*
X14202381Y11371428D01*
X14154762Y11276190D01*
X14107143Y11228571D01*
X14011905Y11180952D01*
X13916667Y11180952D01*
X13821429Y11228571D01*
X13773810Y11276190D01*
X13726190Y11371428D01*
X13678571Y11561905D01*
X13630952Y11657143D01*
X13583333Y11704762D01*
X13488095Y11752381D01*
X13392857Y11752381D01*
X13297619Y11704762D01*
X13250000Y11657143D01*
X13202381Y11561905D01*
X13202381Y11323809D01*
X13250000Y11180952D01*
X13535714Y10895238D02*
X13535714Y10514286D01*
X13202381Y10752381D02*
X14059524Y10752381D01*
X14154762Y10704762D01*
X14202381Y10609524D01*
X14202381Y10514286D01*
X14202381Y9752380D02*
X13678571Y9752380D01*
X13583333Y9799999D01*
X13535714Y9895237D01*
X13535714Y10085714D01*
X13583333Y10180952D01*
X14154762Y9752380D02*
X14202381Y9847618D01*
X14202381Y10085714D01*
X14154762Y10180952D01*
X14059524Y10228571D01*
X13964286Y10228571D01*
X13869048Y10180952D01*
X13821429Y10085714D01*
X13821429Y9847618D01*
X13773810Y9752380D01*
X13535714Y9276190D02*
X14202381Y9276190D01*
X13630952Y9276190D02*
X13583333Y9228571D01*
X13535714Y9133333D01*
X13535714Y8990475D01*
X13583333Y8895237D01*
X13678571Y8847618D01*
X14202381Y8847618D01*
X14202381Y7942856D02*
X13202381Y7942856D01*
X14154762Y7942856D02*
X14202381Y8038094D01*
X14202381Y8228571D01*
X14154762Y8323809D01*
X14107143Y8371428D01*
X14011905Y8419047D01*
X13726190Y8419047D01*
X13630952Y8371428D01*
X13583333Y8323809D01*
X13535714Y8228571D01*
X13535714Y8038094D01*
X13583333Y7942856D01*
%LPC*%
D12*
X12100000Y1300000D03*
X15100000Y1300000D03*
D13*
X4030000Y31900000D03*
X6570000Y31900000D03*
X5300000Y43900000D03*
D14*
X23637600Y5181600D03*
X26637600Y5181600D03*
D15*
X22539600Y9398000D03*
X21639600Y9398000D03*
X20109720Y15402560D03*
X20909720Y15402560D03*
D16*
X2460000Y6050000D03*
D17*
X2460000Y7650000D03*
D16*
X2460000Y4450000D03*
X5000000Y4450000D03*
X5000000Y6050000D03*
D17*
X5000000Y7650000D03*
D18*
X25750000Y25799994D03*
X1400000Y19600000D03*
X15500000Y13950000D03*
X27200000Y40750000D03*
X27200000Y32500000D03*
X8500000Y33120000D03*
X7450000Y43250000D03*
X26278600Y22148800D03*
X12894800Y3606800D03*
X19150000Y29550000D03*
X7000000Y19600000D03*
X22700004Y25750000D03*
X26204400Y18289500D03*
X23816800Y15900400D03*
X24121600Y11734800D03*
X28439600Y11582400D03*
X7250000Y8950000D03*
X19950000Y29000000D03*
X20750000Y29550000D03*
X9300000Y8950000D03*
X3300000Y41900000D03*
X7950000Y38050000D03*
M02*
