%TF.GenerationSoftware,KiCad,Pcbnew,4.0.1-stable*%
%TF.CreationDate,2016-06-24T18:37:57+01:00*%
%TF.ProjectId,StrokeRehabilitation,5374726F6B655265686162696C697461,rev?*%
%TF.FileFunction,Legend,Top*%
%FSLAX46Y46*%
G04 Gerber Fmt 4.6, Leading zero omitted, Abs format (unit mm)*
G04 Created by KiCad (PCBNEW 4.0.1-stable) date 24/06/2016 18:37:57*
%MOMM*%
G01*
G04 APERTURE LIST*
%ADD10C,0.100000*%
%ADD11C,0.150000*%
%ADD12C,0.127000*%
%ADD13C,0.152400*%
%ADD14R,1.000000X1.650000*%
%ADD15R,1.650000X1.000000*%
%ADD16R,2.300000X2.300000*%
%ADD17R,2.300000X2.200000*%
%ADD18R,2.000000X2.500000*%
%ADD19R,1.750000X0.800000*%
%ADD20R,1.400000X1.900000*%
%ADD21R,1.400000X1.400000*%
%ADD22R,1.600000X1.600000*%
%ADD23R,1.900000X1.400000*%
%ADD24R,1.124000X0.959000*%
%ADD25R,1.000000X0.800000*%
%ADD26R,1.300000X1.600000*%
%ADD27R,1.600000X1.300000*%
%ADD28C,1.300000*%
%ADD29R,1.100000X1.900000*%
%ADD30R,3.752800X1.212800*%
%ADD31C,1.400000*%
%ADD32R,2.000000X2.000000*%
%ADD33C,2.400000*%
%ADD34C,0.500000*%
%ADD35R,0.700000X1.138000*%
%ADD36R,2.880000X2.100000*%
%ADD37R,0.500000X0.900000*%
%ADD38R,2.000000X1.400000*%
%ADD39R,0.425400X0.425400*%
%ADD40R,2.400000X3.200000*%
%ADD41C,1.200000*%
%ADD42C,1.700000*%
%ADD43R,1.300000X0.900000*%
%ADD44R,1.150000X1.200000*%
%ADD45C,1.085800*%
G04 APERTURE END LIST*
D10*
D11*
X22648400Y21639200D02*
X22873400Y21264200D01*
X22873400Y21264200D02*
X22423400Y21264200D01*
X22423400Y21264200D02*
X22598400Y21564200D01*
X22598400Y21564200D02*
X22748400Y21339200D01*
X22748400Y21339200D02*
X22548400Y21339200D01*
X22548400Y21339200D02*
X22598400Y21414200D01*
X22998400Y21814200D02*
X22298400Y21814200D01*
X22648400Y21789200D02*
X22998400Y21189200D01*
X22998400Y21189200D02*
X22298400Y21189200D01*
X22298400Y21189200D02*
X22648400Y21789200D01*
X3850000Y14450000D02*
X3475000Y14225000D01*
X3475000Y14225000D02*
X3475000Y14675000D01*
X3475000Y14675000D02*
X3775000Y14500000D01*
X3775000Y14500000D02*
X3550000Y14350000D01*
X3550000Y14350000D02*
X3550000Y14550000D01*
X3550000Y14550000D02*
X3625000Y14500000D01*
X4025000Y14100000D02*
X4025000Y14800000D01*
X4000000Y14450000D02*
X3400000Y14100000D01*
X3400000Y14100000D02*
X3400000Y14800000D01*
X3400000Y14800000D02*
X4000000Y14450000D01*
D12*
X25420000Y30580000D02*
X10180000Y30580000D01*
X10180000Y30580000D02*
X10180000Y45820000D01*
X10180000Y45820000D02*
X13990000Y45820000D01*
X13990000Y45820000D02*
X25420000Y45820000D01*
X25420000Y45820000D02*
X25420000Y42010000D01*
X25420000Y42010000D02*
X25420000Y30580000D01*
X25420000Y42010000D02*
X13990000Y42010000D01*
X13990000Y42010000D02*
X13990000Y45820000D01*
D11*
X23968657Y11173000D02*
G75*
G03X23968657Y11173000I-79057J0D01*
G01*
D13*
X20589600Y10898000D02*
X20589600Y7898000D01*
X20589600Y7898000D02*
X23589600Y7898000D01*
X23589600Y7898000D02*
X23589600Y10898000D01*
X23589600Y10898000D02*
X20589600Y10898000D01*
D11*
X21880431Y16702560D02*
G75*
G03X21880431Y16702560I-70711J0D01*
G01*
D13*
X19455620Y16456660D02*
X19455620Y14348460D01*
X19455620Y14348460D02*
X21563820Y14348460D01*
X21563820Y14348460D02*
X21563820Y16456660D01*
X21563820Y16456660D02*
X19455620Y16456660D01*
D11*
X26229848Y3433771D02*
X26991753Y3433771D01*
X23232648Y3433771D02*
X23994553Y3433771D01*
X23613601Y3052819D02*
X23613601Y3814724D01*
%LPC*%
D14*
X27104400Y10414000D03*
X25304400Y10414000D03*
X27104400Y8418400D03*
X25304400Y8418400D03*
D15*
X17416000Y16292400D03*
X17416000Y14492400D03*
D14*
X4650000Y11900000D03*
X2850000Y11900000D03*
D16*
X30505000Y21672400D03*
X30505000Y19272400D03*
D17*
X30505000Y24272400D03*
X30505000Y16672400D03*
D18*
X27955000Y23572400D03*
X27955000Y17372400D03*
D19*
X27830000Y21772400D03*
X27830000Y21122400D03*
X27830000Y20472400D03*
X27830000Y19822400D03*
X27830000Y19172400D03*
D20*
X30878000Y14500800D03*
X30878000Y11000800D03*
D21*
X30378000Y12750800D03*
D22*
X22648400Y20089200D03*
X22648400Y22989200D03*
D23*
X8950000Y1100000D03*
X5450000Y1100000D03*
D21*
X7200000Y1600000D03*
D22*
X2300000Y14450000D03*
X5200000Y14450000D03*
D24*
X22833300Y17881600D03*
X24800300Y18831600D03*
X24800300Y16931600D03*
D25*
X2700000Y17050000D03*
X4800000Y16400000D03*
X4800000Y17700000D03*
D26*
X25154400Y14782800D03*
X27254400Y14782800D03*
X25154400Y12750800D03*
X27254400Y12750800D03*
D27*
X18584400Y8348000D03*
X18584400Y10448000D03*
X16552400Y8348000D03*
X16552400Y10448000D03*
X24832800Y20489200D03*
X24832800Y22589200D03*
X7256000Y3776000D03*
X7256000Y5876000D03*
X9288000Y3776000D03*
X9288000Y5876000D03*
D26*
X4800000Y19600000D03*
X2700000Y19600000D03*
D28*
X12100000Y1300000D03*
X15100000Y1300000D03*
D29*
X11350000Y3050000D03*
X14350000Y3050000D03*
X15850000Y3050000D03*
D30*
X24505600Y31850000D03*
X24505600Y33120000D03*
X24505600Y34390000D03*
X24505600Y35660000D03*
X24505600Y36930000D03*
X24505600Y38200000D03*
X24505600Y39470000D03*
X24505600Y40740000D03*
X11094400Y44550000D03*
X11094400Y43280000D03*
X11094400Y42010000D03*
X11094400Y40740000D03*
X11094400Y39470000D03*
X11094400Y38200000D03*
X11094400Y36930000D03*
X11094400Y35660000D03*
X11094400Y34390000D03*
X11094400Y33120000D03*
X11094400Y31850000D03*
D31*
X4030000Y31900000D03*
X6570000Y31900000D03*
D32*
X5300000Y41900000D03*
X5300000Y39900000D03*
X5300000Y37900000D03*
X5300000Y35900000D03*
X5300000Y33900000D03*
D31*
X5300000Y43900000D03*
D33*
X23637600Y5181600D03*
X26637600Y5181600D03*
D34*
X22539600Y9398000D03*
D35*
X23089600Y10833000D03*
X22589600Y10833000D03*
X22089600Y10833000D03*
X21589600Y10833000D03*
X21089600Y10833000D03*
X21089600Y7963000D03*
X21589600Y7963000D03*
X22089600Y7963000D03*
X22589600Y7963000D03*
X23089600Y7963000D03*
D36*
X22089600Y9398000D03*
D34*
X21639600Y9398000D03*
X20109720Y15402560D03*
D37*
X21159720Y16452560D03*
X20509720Y16452560D03*
X19859720Y16452560D03*
X19859720Y14352560D03*
X20509720Y14352560D03*
X21159720Y14352560D03*
D38*
X20509720Y15402560D03*
D39*
X20509720Y15402560D03*
X20509720Y15402560D03*
D34*
X20909720Y15402560D03*
D40*
X2460000Y8250000D03*
D41*
X2460000Y6050000D03*
D42*
X2460000Y7650000D03*
D41*
X2460000Y4450000D03*
X5000000Y4450000D03*
X5000000Y6050000D03*
D42*
X5000000Y7650000D03*
D40*
X5000000Y8250000D03*
D32*
X3300000Y39900000D03*
D43*
X22750000Y26850000D03*
X22750000Y28350000D03*
D44*
X26700000Y28350000D03*
X26700000Y26850000D03*
D43*
X24750000Y28350000D03*
X24750000Y26850000D03*
D45*
X25750000Y25799994D03*
X1400000Y19600000D03*
X15500000Y13950000D03*
X27200000Y40750000D03*
X27200000Y32500000D03*
X8500000Y33120000D03*
X7450000Y43250000D03*
X26278600Y22148800D03*
X12894800Y3606800D03*
X19150000Y29550000D03*
X7000000Y19600000D03*
X22700004Y25750000D03*
X26204400Y18289500D03*
X23816800Y15900400D03*
X24121600Y11734800D03*
X28439600Y11582400D03*
X7250000Y8950000D03*
X19950000Y29000000D03*
X20750000Y29550000D03*
X9300000Y8950000D03*
X3300000Y41900000D03*
X7950000Y38050000D03*
M02*
