G04 #@! TF.FileFunction,Copper,L1,Top,Signal*
%FSLAX46Y46*%
G04 Gerber Fmt 4.6, Leading zero omitted, Abs format (unit mm)*
G04 Created by KiCad (PCBNEW 4.0.1-stable) date 05/04/2016 03:05:35*
%MOMM*%
G01*
G04 APERTURE LIST*
%ADD10C,0.100000*%
%ADD11R,2.000000X1.600000*%
%ADD12R,1.600000X2.000000*%
%ADD13R,1.970000X0.650000*%
%ADD14R,1.600000X0.500000*%
%ADD15R,1.000000X1.150000*%
%ADD16R,3.352800X0.812800*%
%ADD17C,8.000000*%
%ADD18R,1.600000X1.600000*%
%ADD19R,1.500000X3.400000*%
%ADD20R,1.000000X4.000000*%
%ADD21R,2.000000X2.500000*%
%ADD22R,3.000000X3.500000*%
%ADD23R,3.000000X0.650000*%
%ADD24C,0.400000*%
G04 APERTURE END LIST*
D10*
D11*
X29950000Y26200000D03*
X33350000Y26200000D03*
X17700000Y25800000D03*
X14300000Y25800000D03*
X15750000Y10950000D03*
X12350000Y10950000D03*
D12*
X19950000Y15000000D03*
X19950000Y11600000D03*
X22250000Y15000000D03*
X22250000Y11600000D03*
D13*
X12310000Y13200000D03*
X15790000Y13200000D03*
D14*
X12500000Y15500000D03*
X15600000Y14850000D03*
X15600000Y16150000D03*
D12*
X19950000Y18200000D03*
X19950000Y21600000D03*
X22250000Y18200000D03*
X22250000Y21600000D03*
D11*
X15750000Y17950000D03*
X12350000Y17950000D03*
D15*
X24250000Y2125000D03*
X21750000Y2125000D03*
X19250000Y2125000D03*
X24250000Y7775000D03*
X21750000Y7775000D03*
X19250000Y7775000D03*
D16*
X33505600Y28850000D03*
X33505600Y30120000D03*
X33505600Y31390000D03*
X33505600Y32660000D03*
X33505600Y33930000D03*
X33505600Y35200000D03*
X33505600Y36470000D03*
X33505600Y37740000D03*
X20094400Y41550000D03*
X20094400Y40280000D03*
X20094400Y39010000D03*
X20094400Y37740000D03*
X20094400Y36470000D03*
X20094400Y35200000D03*
X20094400Y33930000D03*
X20094400Y32660000D03*
X20094400Y31390000D03*
X20094400Y30120000D03*
X20094400Y28850000D03*
D17*
X4500000Y39500000D03*
D18*
X13030000Y28900000D03*
X15570000Y28900000D03*
X14300000Y38900000D03*
X14300000Y36900000D03*
X14300000Y34900000D03*
X14300000Y32900000D03*
X14300000Y30900000D03*
X14300000Y40900000D03*
D19*
X28550000Y9600000D03*
D20*
X30900000Y15600000D03*
X32900000Y15600000D03*
D19*
X35250000Y9600000D03*
D21*
X14900000Y8063000D03*
X12360000Y8063000D03*
X12360000Y3237000D03*
X14900000Y3237000D03*
X14900000Y5650000D03*
X12360000Y5650000D03*
D22*
X35190000Y21650000D03*
D23*
X28110000Y21650000D03*
X28110000Y22920000D03*
X28110000Y24190000D03*
X28110000Y20380000D03*
X28110000Y19110000D03*
D24*
X25800000Y22950000D02*
X23700000Y20850000D01*
X23700000Y20850000D02*
X23700000Y11850000D01*
X23700000Y11850000D02*
X23450000Y11600000D01*
X23450000Y11600000D02*
X22250000Y11600000D01*
X14900000Y3237000D02*
X14900000Y1587000D01*
X13100000Y38900000D02*
X14300000Y38900000D01*
X14900000Y1587000D02*
X14313000Y1000000D01*
X10000000Y1200000D02*
X10000000Y35800000D01*
X14313000Y1000000D02*
X10200000Y1000000D01*
X10200000Y1000000D02*
X10000000Y1200000D01*
X10000000Y35800000D02*
X13100000Y38900000D01*
X15750000Y10950000D02*
X18100000Y10950000D01*
X18100000Y10950000D02*
X19300000Y10950000D01*
X18000000Y12375000D02*
X18000000Y11050000D01*
X18000000Y11050000D02*
X18100000Y10950000D01*
X19300000Y10950000D02*
X19950000Y11600000D01*
X15750000Y10950000D02*
X15300000Y10500000D01*
X15300000Y10500000D02*
X15300000Y8463000D01*
X15300000Y8463000D02*
X14900000Y8063000D01*
X22250000Y11600000D02*
X19950000Y11600000D01*
X29950000Y26200000D02*
X27214998Y26200000D01*
X27214998Y26200000D02*
X25800000Y24785002D01*
X25800000Y24785002D02*
X25800000Y22950000D01*
X25800000Y22950000D02*
X25830000Y22920000D01*
X25830000Y22920000D02*
X28110000Y22920000D01*
X14300000Y38900000D02*
X15350000Y38900000D01*
X15350000Y38900000D02*
X16100000Y38150000D01*
X16100000Y38150000D02*
X16100000Y37200000D01*
X16100000Y37200000D02*
X16830000Y36470000D01*
X16830000Y36470000D02*
X18018000Y36470000D01*
X18018000Y36470000D02*
X20094400Y36470000D01*
X14900000Y5650000D02*
X14900000Y3237000D01*
X14900000Y8063000D02*
X14900000Y5650000D01*
X15350000Y8513000D02*
X14900000Y8063000D01*
X15790000Y13200000D02*
X17175000Y13200000D01*
X17175000Y13200000D02*
X18000000Y12375000D01*
X32900000Y15600000D02*
X32900000Y13100000D01*
X19250000Y6650000D02*
X19250000Y7775000D01*
X32900000Y13100000D02*
X31900000Y12100000D01*
X26950000Y11800000D02*
X26950000Y8300000D01*
X31900000Y12100000D02*
X27250000Y12100000D01*
X19650000Y6250000D02*
X19250000Y6650000D01*
X27250000Y12100000D02*
X26950000Y11800000D01*
X26950000Y8300000D02*
X24900000Y6250000D01*
X24900000Y6250000D02*
X19650000Y6250000D01*
X35782001Y26100000D02*
X35682001Y26200000D01*
X35682001Y26200000D02*
X33350000Y26200000D01*
X19250000Y7775000D02*
X19250000Y8700000D01*
X19250000Y8700000D02*
X20300012Y9750012D01*
X20300012Y9750012D02*
X23200012Y9750012D01*
X24549967Y11099967D02*
X24549967Y19989967D01*
X23200012Y9750012D02*
X24549967Y11099967D01*
X24549967Y19989967D02*
X26210000Y21650000D01*
X26210000Y21650000D02*
X28110000Y21650000D01*
X32900000Y15600000D02*
X33800000Y15600000D01*
X35190000Y19500000D02*
X35190000Y21650000D01*
X33800000Y15600000D02*
X35190000Y16990000D01*
X35190000Y16990000D02*
X35190000Y19500000D01*
X35782001Y28700000D02*
X35782001Y26100000D01*
X35782001Y26100000D02*
X35782001Y22132001D01*
X35782001Y30050000D02*
X35782001Y28700000D01*
X35782001Y28700000D02*
X35632001Y28850000D01*
X35632001Y28850000D02*
X33505600Y28850000D01*
X35782001Y37539999D02*
X35782001Y30050000D01*
X35712001Y30120000D02*
X33505600Y30120000D01*
X35782001Y30050000D02*
X35712001Y30120000D01*
X33505600Y37740000D02*
X35582000Y37740000D01*
X35582000Y37740000D02*
X35782001Y37539999D01*
X35782001Y22132001D02*
X35300000Y21650000D01*
X35300000Y21650000D02*
X35190000Y21650000D01*
X23500000Y27912774D02*
X23500000Y37740000D01*
X19937237Y24350011D02*
X23500000Y27912774D01*
X16000011Y24350011D02*
X19937237Y24350011D01*
X10850011Y19200011D02*
X16000011Y24350011D01*
X12350000Y17950000D02*
X10950000Y17950000D01*
X10950000Y17950000D02*
X10850011Y18049989D01*
X10850011Y18049989D02*
X10850011Y19200011D01*
X17650000Y28850000D02*
X17650000Y27950000D01*
X17650000Y27950000D02*
X17199999Y27499999D01*
X17199999Y27499999D02*
X16399999Y27499999D01*
X16399999Y27499999D02*
X16000000Y27100000D01*
X16000000Y27100000D02*
X16000000Y24350022D01*
X16000000Y24350022D02*
X16000011Y24350011D01*
X12350000Y17950000D02*
X13550000Y17950000D01*
X13550000Y17950000D02*
X13950000Y17550000D01*
X14350000Y16150000D02*
X15350000Y16150000D01*
X13950000Y17550000D02*
X13950000Y16550000D01*
X13950000Y16550000D02*
X14350000Y16150000D01*
X15350000Y16150000D02*
X15600000Y16150000D01*
X17650000Y30120000D02*
X17650000Y28850000D01*
X17650000Y28850000D02*
X20094400Y28850000D01*
X31429200Y37740000D02*
X23500000Y37740000D01*
X23500000Y37740000D02*
X20094400Y37740000D01*
X17400000Y40250000D02*
X17400000Y40900000D01*
X17400000Y38358000D02*
X17400000Y40250000D01*
X17400000Y40250000D02*
X17430000Y40280000D01*
X17430000Y40280000D02*
X20094400Y40280000D01*
X20094400Y37740000D02*
X18018000Y37740000D01*
X18018000Y37740000D02*
X17400000Y38358000D01*
X17400000Y40900000D02*
X18050000Y41550000D01*
X18050000Y41550000D02*
X20094400Y41550000D01*
X33505600Y37740000D02*
X31429200Y37740000D01*
X14300000Y30900000D02*
X16350000Y30900000D01*
X16350000Y30900000D02*
X17130000Y30120000D01*
X17130000Y30120000D02*
X17650000Y30120000D01*
X17650000Y30120000D02*
X20094400Y30120000D01*
X32900000Y17100000D02*
X32900000Y15600000D01*
X17700000Y25800000D02*
X20207202Y25800000D01*
X20207202Y25800000D02*
X22650000Y28242798D01*
X22650000Y28242798D02*
X22650000Y34720800D01*
X22650000Y34720800D02*
X22170800Y35200000D01*
X22170800Y35200000D02*
X20094400Y35200000D01*
X11629999Y26720001D02*
X12550000Y25800000D01*
X12550000Y25800000D02*
X14300000Y25800000D01*
X14300000Y36900000D02*
X13100000Y36900000D01*
X13100000Y36900000D02*
X11629999Y35429999D01*
X11629999Y35429999D02*
X11629999Y26720001D01*
X12310000Y13200000D02*
X12310000Y10990000D01*
X12310000Y10990000D02*
X12350000Y10950000D01*
X12350000Y10950000D02*
X12350000Y8073000D01*
X12350000Y8073000D02*
X12360000Y8063000D01*
X12500000Y15500000D02*
X11250000Y15500000D01*
X11250000Y15500000D02*
X10850000Y15100000D01*
X10850000Y15100000D02*
X10850000Y13400000D01*
X10850000Y13400000D02*
X11050000Y13200000D01*
X11050000Y13200000D02*
X12310000Y13200000D01*
X12360000Y5650000D02*
X12360000Y3237000D01*
X12360000Y8063000D02*
X12360000Y5650000D01*
X19950000Y15000000D02*
X19950000Y18200000D01*
X22250000Y15000000D02*
X22250000Y18200000D01*
X18200000Y22200000D02*
X18200000Y21950000D01*
X18200000Y21950000D02*
X18200000Y17950000D01*
X19019998Y23550000D02*
X18200000Y22730002D01*
X20268614Y23550000D02*
X19019998Y23550000D01*
X18200000Y22730002D02*
X18200000Y21950000D01*
X30648614Y33930000D02*
X20268614Y23550000D01*
X33505600Y33930000D02*
X30648614Y33930000D01*
X18200000Y17950000D02*
X18200000Y15750000D01*
X18200000Y17950000D02*
X15750000Y17950000D01*
X18200000Y15750000D02*
X17300000Y14850000D01*
X17300000Y14850000D02*
X15600000Y14850000D01*
X15950000Y17950000D02*
X15750000Y17950000D01*
X19950000Y21600000D02*
X19950000Y22050000D01*
X19950000Y22050000D02*
X30560000Y32660000D01*
X30560000Y32660000D02*
X33505600Y32660000D01*
X33505600Y31390000D02*
X30890000Y31390000D01*
X30890000Y31390000D02*
X22250000Y22750000D01*
X22250000Y22750000D02*
X22250000Y21600000D01*
X21750000Y7775000D02*
X21750000Y8550000D01*
X21750000Y8550000D02*
X22150001Y8950001D01*
X22150001Y8950001D02*
X23581387Y8950001D01*
X23581387Y8950001D02*
X25349978Y10718592D01*
X25349978Y10718592D02*
X25349978Y18349978D01*
X25349978Y18349978D02*
X26110000Y19110000D01*
X26110000Y19110000D02*
X28110000Y19110000D01*
X14300000Y34900000D02*
X15500000Y34900000D01*
X15500000Y34900000D02*
X17740000Y32660000D01*
X17740000Y32660000D02*
X18018000Y32660000D01*
X18018000Y32660000D02*
X20094400Y32660000D01*
X14300000Y32900000D02*
X15900000Y32900000D01*
X18018000Y31390000D02*
X20094400Y31390000D01*
X15900000Y32900000D02*
X17410000Y31390000D01*
X17410000Y31390000D02*
X18018000Y31390000D01*
X30900000Y15600000D02*
X30900000Y13250000D01*
X30900000Y13250000D02*
X30600000Y12950000D01*
X30600000Y12950000D02*
X26968614Y12950000D01*
X26968614Y12950000D02*
X26149989Y12131375D01*
X26149989Y12131375D02*
X26149989Y9749989D01*
X26149989Y9749989D02*
X24250000Y7850000D01*
X24250000Y7850000D02*
X24250000Y7775000D01*
X30900000Y18250000D02*
X30900000Y23300000D01*
X30900000Y23300000D02*
X30010000Y24190000D01*
X30010000Y24190000D02*
X28110000Y24190000D01*
X30900000Y18250000D02*
X30900000Y15600000D01*
M02*
