M48
;DRILL file {KiCad 4.0.1-stable} date 24/06/2016 15:52:04
;FORMAT={3:3/ absolute / metric / suppress leading zeros}
FMAT,2
METRIC,TZ
T1C0.300
T2C0.800
T3C0.800
T4C0.900
T5C1.000
%
G90
G05
M71
T1
X1400Y19600
X3300Y41900
X7000Y19600
X7250Y8950
X7450Y43250
X7950Y38050
X8500Y33120
X9300Y8950
X12895Y3607
X15500Y13950
X19150Y29550
X19950Y29000
X20110Y15403
X20750Y29550
X20910Y15403
X21640Y9398
X22540Y9398
X22700Y25750
X23817Y15900
X24122Y11735
X25750Y25800
X26204Y18290
X26279Y22149
X27200Y40750
X27200Y32500
X28440Y11582
T2
X2460Y7650
X5000Y7650
X23638Y5182
X26638Y5182
T3
X2460Y6050
X2460Y4450
X5000Y6050
X5000Y4450
T4
X12100Y1300
X15100Y1300
T5
X4030Y31900
X5300Y43900
X6570Y31900
T0
M30
